solid OpenSCAD_Model
  facet normal 0 -1 2.22045e-16
    outer loop
      vertex 0 7 13.056
      vertex 0 7 8.54431
      vertex 0.089722 7 8.42082
    endloop
  endfacet
  facet normal 0 -1 2.22045e-16
    outer loop
      vertex 0.243983 7 8.3
      vertex 0 7 13.056
      vertex 0.224921 7 8.30897
    endloop
  endfacet
  facet normal 0 -1 2.22045e-16
    outer loop
      vertex 0.224921 7 8.30897
      vertex 0 7 13.056
      vertex 0.089722 7 8.42082
    endloop
  endfacet
  facet normal 0 -1 2.22045e-16
    outer loop
      vertex 11.7557 7 8.3
      vertex 0 7 13.056
      vertex 0.243983 7 8.3
    endloop
  endfacet
  facet normal 0 -1 2.22045e-16
    outer loop
      vertex 11.8792 7 8.38972
      vertex 0 7 13.056
      vertex 11.7557 7 8.3
    endloop
  endfacet
  facet normal 0 -1 2.22045e-16
    outer loop
      vertex 11.991 7 8.52492
      vertex 0 7 13.056
      vertex 11.8792 7 8.38972
    endloop
  endfacet
  facet normal 0 -1 2.22045e-16
    outer loop
      vertex 12 7 8.54398
      vertex 0 7 13.056
      vertex 11.991 7 8.52492
    endloop
  endfacet
  facet normal 0 -1 2.22045e-16
    outer loop
      vertex 12 7 13.0557
      vertex 0 7 13.056
      vertex 12 7 8.54398
    endloop
  endfacet
  facet normal 0 -1 2.22045e-16
    outer loop
      vertex 11.9103 7 13.1792
      vertex 0 7 13.056
      vertex 12 7 13.0557
    endloop
  endfacet
  facet normal 0 -1 2.22045e-16
    outer loop
      vertex 11.7751 7 13.291
      vertex 0 7 13.056
      vertex 11.9103 7 13.1792
    endloop
  endfacet
  facet normal 0 -1 2.22045e-16
    outer loop
      vertex 11.756 7 13.3
      vertex 0 7 13.056
      vertex 11.7751 7 13.291
    endloop
  endfacet
  facet normal 0 -1 2.22045e-16
    outer loop
      vertex 0.244308 7 13.3
      vertex 0 7 13.056
      vertex 11.756 7 13.3
    endloop
  endfacet
  facet normal 0 -1 2.22045e-16
    outer loop
      vertex 0.120817 7 13.2103
      vertex 0 7 13.056
      vertex 0.244308 7 13.3
    endloop
  endfacet
  facet normal 0 -1 2.22045e-16
    outer loop
      vertex 0.00897 7 13.0751
      vertex 0 7 13.056
      vertex 0.120817 7 13.2103
    endloop
  endfacet
  facet normal -0.809015 -1.30515e-16 -0.587788
    outer loop
      vertex 0 7 8.54431
      vertex 0 8 8.54431
      vertex 0.089722 7 8.42082
    endloop
  endfacet
  facet normal -0.809015 -1.30515e-16 -0.587788
    outer loop
      vertex 0.089722 7 8.42082
      vertex 0 8 8.54431
      vertex 0.089722 8 8.42082
    endloop
  endfacet
  facet normal -1 0 0
    outer loop
      vertex 0 7 8.54431
      vertex 0 7 13.056
      vertex 0 8 8.54431
    endloop
  endfacet
  facet normal -1 0 0
    outer loop
      vertex 0 8 8.54431
      vertex 0 7 13.056
      vertex 0 8 13.056
    endloop
  endfacet
  facet normal -0.904827 9.45419e-17 0.425779
    outer loop
      vertex 0 7 13.056
      vertex 0.00897 7 13.0751
      vertex 0 8 13.056
    endloop
  endfacet
  facet normal -0.904827 9.45419e-17 0.425779
    outer loop
      vertex 0 8 13.056
      vertex 0.00897 7 13.0751
      vertex 0.00897 8 13.0751
    endloop
  endfacet
  facet normal -0.770511 1.41537e-16 0.637426
    outer loop
      vertex 0.00897 7 13.0751
      vertex 0.120817 7 13.2103
      vertex 0.00897 8 13.0751
    endloop
  endfacet
  facet normal -0.770511 1.41537e-16 0.637426
    outer loop
      vertex 0.00897 8 13.0751
      vertex 0.120817 7 13.2103
      vertex 0.120817 8 13.2103
    endloop
  endfacet
  facet normal -0.587788 1.79637e-16 0.809015
    outer loop
      vertex 0.120817 8 13.2103
      vertex 0.120817 7 13.2103
      vertex 0.244308 7 13.3
    endloop
  endfacet
  facet normal -0.587788 1.79637e-16 0.809015
    outer loop
      vertex 0.244308 8 13.3
      vertex 0.120817 8 13.2103
      vertex 0.244308 7 13.3
    endloop
  endfacet
  facet normal 0 2.22045e-16 1
    outer loop
      vertex 0.244308 8 13.3
      vertex 0.244308 7 13.3
      vertex 11.756 7 13.3
    endloop
  endfacet
  facet normal 0 2.22045e-16 1
    outer loop
      vertex 11.756 8 13.3
      vertex 0.244308 8 13.3
      vertex 11.756 7 13.3
    endloop
  endfacet
  facet normal 0.425779 2.00912e-16 0.904827
    outer loop
      vertex 11.756 8 13.3
      vertex 11.756 7 13.3
      vertex 11.7751 7 13.291
    endloop
  endfacet
  facet normal 0.425779 2.00912e-16 0.904827
    outer loop
      vertex 11.7751 8 13.291
      vertex 11.756 8 13.3
      vertex 11.7751 7 13.291
    endloop
  endfacet
  facet normal 0.637426 1.71088e-16 0.770511
    outer loop
      vertex 11.7751 8 13.291
      vertex 11.7751 7 13.291
      vertex 11.9103 7 13.1792
    endloop
  endfacet
  facet normal 0.637426 1.71088e-16 0.770511
    outer loop
      vertex 11.9103 8 13.1792
      vertex 11.7751 8 13.291
      vertex 11.9103 7 13.1792
    endloop
  endfacet
  facet normal 0.809015 1.30515e-16 0.587788
    outer loop
      vertex 11.9103 8 13.1792
      vertex 11.9103 7 13.1792
      vertex 12 7 13.0557
    endloop
  endfacet
  facet normal 0.809015 1.30515e-16 0.587788
    outer loop
      vertex 12 8 13.0557
      vertex 11.9103 8 13.1792
      vertex 12 7 13.0557
    endloop
  endfacet
  facet normal 1 0 0
    outer loop
      vertex 12 7 13.0557
      vertex 12 7 8.54398
      vertex 12 8 8.54398
    endloop
  endfacet
  facet normal 1 0 0
    outer loop
      vertex 12 8 13.0557
      vertex 12 7 13.0557
      vertex 12 8 8.54398
    endloop
  endfacet
  facet normal 0.904827 -9.45419e-17 -0.425779
    outer loop
      vertex 12 7 8.54398
      vertex 11.991 7 8.52492
      vertex 11.991 8 8.52492
    endloop
  endfacet
  facet normal 0.904827 -9.45419e-17 -0.425779
    outer loop
      vertex 12 8 8.54398
      vertex 12 7 8.54398
      vertex 11.991 8 8.52492
    endloop
  endfacet
  facet normal 0.770511 -1.41537e-16 -0.637426
    outer loop
      vertex 11.991 7 8.52492
      vertex 11.8792 7 8.38972
      vertex 11.8792 8 8.38972
    endloop
  endfacet
  facet normal 0.770511 -1.41537e-16 -0.637426
    outer loop
      vertex 11.991 8 8.52492
      vertex 11.991 7 8.52492
      vertex 11.8792 8 8.38972
    endloop
  endfacet
  facet normal 0.587788 -1.79637e-16 -0.809015
    outer loop
      vertex 11.7557 7 8.3
      vertex 11.7557 8 8.3
      vertex 11.8792 7 8.38972
    endloop
  endfacet
  facet normal 0.587788 -1.79637e-16 -0.809015
    outer loop
      vertex 11.8792 7 8.38972
      vertex 11.7557 8 8.3
      vertex 11.8792 8 8.38972
    endloop
  endfacet
  facet normal 0 -2.22045e-16 -1
    outer loop
      vertex 0.243983 7 8.3
      vertex 0.243983 8 8.3
      vertex 11.7557 7 8.3
    endloop
  endfacet
  facet normal 0 -2.22045e-16 -1
    outer loop
      vertex 11.7557 7 8.3
      vertex 0.243983 8 8.3
      vertex 11.7557 8 8.3
    endloop
  endfacet
  facet normal -0.425779 -2.00912e-16 -0.904827
    outer loop
      vertex 0.224921 7 8.30897
      vertex 0.224921 8 8.30897
      vertex 0.243983 7 8.3
    endloop
  endfacet
  facet normal -0.425779 -2.00912e-16 -0.904827
    outer loop
      vertex 0.243983 7 8.3
      vertex 0.224921 8 8.30897
      vertex 0.243983 8 8.3
    endloop
  endfacet
  facet normal -0.637426 -1.71088e-16 -0.770511
    outer loop
      vertex 0.089722 7 8.42082
      vertex 0.089722 8 8.42082
      vertex 0.224921 7 8.30897
    endloop
  endfacet
  facet normal -0.637426 -1.71088e-16 -0.770511
    outer loop
      vertex 0.224921 7 8.30897
      vertex 0.089722 8 8.42082
      vertex 0.224921 8 8.30897
    endloop
  endfacet
  facet normal 0 1 -2.22045e-16
    outer loop
      vertex 0 8 8.54431
      vertex 0 8 13.056
      vertex 0.089722 8 8.42082
    endloop
  endfacet
  facet normal 0 1 -2.22045e-16
    outer loop
      vertex 0.089722 8 8.42082
      vertex 0 8 13.056
      vertex 0.00897 8 13.0751
    endloop
  endfacet
  facet normal 0 1 -2.22045e-16
    outer loop
      vertex 0.089722 8 8.42082
      vertex 0.00897 8 13.0751
      vertex 0.120817 8 13.2103
    endloop
  endfacet
  facet normal 0 1 -2.22045e-16
    outer loop
      vertex 0.089722 8 8.42082
      vertex 0.120817 8 13.2103
      vertex 0.244308 8 13.3
    endloop
  endfacet
  facet normal 0 1 -2.22045e-16
    outer loop
      vertex 1.81028 8 11.9792
      vertex 0.244308 8 13.3
      vertex 11.756 8 13.3
    endloop
  endfacet
  facet normal 0 1 -2.22045e-16
    outer loop
      vertex 8.81028 8 11.9792
      vertex 11.7751 8 13.291
      vertex 11.9103 8 13.1792
    endloop
  endfacet
  facet normal 0 1 -2.22045e-16
    outer loop
      vertex 8.9 8 11.8557
      vertex 12 8 13.0557
      vertex 10.1443 8 12.1
    endloop
  endfacet
  facet normal 0 1 -2.22045e-16
    outer loop
      vertex 10.9 8 9.54398
      vertex 12 8 13.0557
      vertex 12 8 8.54398
    endloop
  endfacet
  facet normal 0 1 -2.22045e-16
    outer loop
      vertex 0.089722 8 8.42082
      vertex 12 8 8.54398
      vertex 11.991 8 8.52492
    endloop
  endfacet
  facet normal 0 1 -2.22045e-16
    outer loop
      vertex 0.089722 8 8.42082
      vertex 11.991 8 8.52492
      vertex 11.8792 8 8.38972
    endloop
  endfacet
  facet normal 0 1 -2.22045e-16
    outer loop
      vertex 0.089722 8 8.42082
      vertex 11.8792 8 8.38972
      vertex 11.7557 8 8.3
    endloop
  endfacet
  facet normal 0 1 -2.22045e-16
    outer loop
      vertex 0.089722 8 8.42082
      vertex 11.7557 8 8.3
      vertex 0.243983 8 8.3
    endloop
  endfacet
  facet normal 0 1 -2.22045e-16
    outer loop
      vertex 0.089722 8 8.42082
      vertex 0.243983 8 8.3
      vertex 0.224921 8 8.30897
    endloop
  endfacet
  facet normal 0 1 -2.22045e-16
    outer loop
      vertex 0.089722 8 8.42082
      vertex 0.244308 8 13.3
      vertex 0.9 8 11.856
    endloop
  endfacet
  facet normal 0 1 -2.22045e-16
    outer loop
      vertex 2.9 8 9.54431
      vertex 1.65569 8 9.3
      vertex 1.77918 8 9.38972
    endloop
  endfacet
  facet normal 0 1 -2.22045e-16
    outer loop
      vertex 0.089722 8 8.42082
      vertex 0.9 8 11.856
      vertex 0.9 8 9.54431
    endloop
  endfacet
  facet normal 0 1 -2.22045e-16
    outer loop
      vertex 8.65602 8 12.1
      vertex 11.756 8 13.3
      vertex 8.67508 8 12.091
    endloop
  endfacet
  facet normal 0 1 -2.22045e-16
    outer loop
      vertex 0.089722 8 8.42082
      vertex 0.9 8 9.54431
      vertex 0.989722 8 9.42082
    endloop
  endfacet
  facet normal 0 1 -2.22045e-16
    outer loop
      vertex 0.089722 8 8.42082
      vertex 0.989722 8 9.42082
      vertex 1.12492 8 9.30897
    endloop
  endfacet
  facet normal 0 1 -2.22045e-16
    outer loop
      vertex 5.9 8 9.54431
      vertex 3.9 8 11.8557
      vertex 5.9 8 11.856
    endloop
  endfacet
  facet normal 0 1 -2.22045e-16
    outer loop
      vertex 0.089722 8 8.42082
      vertex 1.12492 8 9.30897
      vertex 1.14398 8 9.3
    endloop
  endfacet
  facet normal 0 1 -2.22045e-16
    outer loop
      vertex 5.9 8 9.54431
      vertex 3.9 8 9.54398
      vertex 3.9 8 11.8557
    endloop
  endfacet
  facet normal 0 1 -2.22045e-16
    outer loop
      vertex 0.089722 8 8.42082
      vertex 1.14398 8 9.3
      vertex 1.65569 8 9.3
    endloop
  endfacet
  facet normal 0 1 -2.22045e-16
    outer loop
      vertex 1.67508 8 12.091
      vertex 0.244308 8 13.3
      vertex 1.81028 8 11.9792
    endloop
  endfacet
  facet normal 0 1 -2.22045e-16
    outer loop
      vertex 2.9 8 9.54431
      vertex 0.089722 8 8.42082
      vertex 1.65569 8 9.3
    endloop
  endfacet
  facet normal 0 1 -2.22045e-16
    outer loop
      vertex 1.65602 8 12.1
      vertex 0.244308 8 13.3
      vertex 1.67508 8 12.091
    endloop
  endfacet
  facet normal 0 1 -2.22045e-16
    outer loop
      vertex 1.14431 8 12.1
      vertex 0.244308 8 13.3
      vertex 1.65602 8 12.1
    endloop
  endfacet
  facet normal 0 1 -2.22045e-16
    outer loop
      vertex 1.02082 8 12.0103
      vertex 0.244308 8 13.3
      vertex 1.14431 8 12.1
    endloop
  endfacet
  facet normal 0 1 -2.22045e-16
    outer loop
      vertex 0.90897 8 11.8751
      vertex 0.244308 8 13.3
      vertex 1.02082 8 12.0103
    endloop
  endfacet
  facet normal 0 1 -2.22045e-16
    outer loop
      vertex 0.9 8 11.856
      vertex 0.244308 8 13.3
      vertex 0.90897 8 11.8751
    endloop
  endfacet
  facet normal 0 1 -2.22045e-16
    outer loop
      vertex 1.81028 8 11.9792
      vertex 11.756 8 13.3
      vertex 3.14431 8 12.1
    endloop
  endfacet
  facet normal 0 1 -2.22045e-16
    outer loop
      vertex 2.98972 8 9.42082
      vertex 0.089722 8 8.42082
      vertex 2.9 8 9.54431
    endloop
  endfacet
  facet normal 0 1 -2.22045e-16
    outer loop
      vertex 8.9 8 11.8557
      vertex 10.1443 8 12.1
      vertex 10.0208 8 12.0103
    endloop
  endfacet
  facet normal 0 1 -2.22045e-16
    outer loop
      vertex 3.65569 8 9.3
      vertex 12 8 8.54398
      vertex 3.14398 8 9.3
    endloop
  endfacet
  facet normal 0 1 -2.22045e-16
    outer loop
      vertex 8.81028 8 11.9792
      vertex 12 8 13.0557
      vertex 8.9 8 11.8557
    endloop
  endfacet
  facet normal 0 1 -2.22045e-16
    outer loop
      vertex 0.089722 8 8.42082
      vertex 2.98972 8 9.42082
      vertex 3.12492 8 9.30897
    endloop
  endfacet
  facet normal 0 1 -2.22045e-16
    outer loop
      vertex 0.089722 8 8.42082
      vertex 3.12492 8 9.30897
      vertex 3.14398 8 9.3
    endloop
  endfacet
  facet normal 0 1 -2.22045e-16
    outer loop
      vertex 0.089722 8 8.42082
      vertex 3.14398 8 9.3
      vertex 12 8 8.54398
    endloop
  endfacet
  facet normal 0 1 -2.22045e-16
    outer loop
      vertex 3.77918 8 9.38972
      vertex 12 8 8.54398
      vertex 3.65569 8 9.3
    endloop
  endfacet
  facet normal 0 1 -2.22045e-16
    outer loop
      vertex 8.81028 8 11.9792
      vertex 11.9103 8 13.1792
      vertex 12 8 13.0557
    endloop
  endfacet
  facet normal 0 1 -2.22045e-16
    outer loop
      vertex 8.14431 8 12.1
      vertex 11.756 8 13.3
      vertex 8.65602 8 12.1
    endloop
  endfacet
  facet normal 0 1 -2.22045e-16
    outer loop
      vertex 1.81028 8 11.9792
      vertex 3.14431 8 12.1
      vertex 1.9 8 11.8557
    endloop
  endfacet
  facet normal 0 1 -2.22045e-16
    outer loop
      vertex 6.14431 8 12.1
      vertex 3.9 8 11.8557
      vertex 11.756 8 13.3
    endloop
  endfacet
  facet normal 0 1 -2.22045e-16
    outer loop
      vertex 3.9 8 11.8557
      vertex 3.81028 8 11.9792
      vertex 11.756 8 13.3
    endloop
  endfacet
  facet normal 0 1 -2.22045e-16
    outer loop
      vertex 5.9 8 9.54431
      vertex 3.77918 8 9.38972
      vertex 3.89103 8 9.52492
    endloop
  endfacet
  facet normal 0 1 -2.22045e-16
    outer loop
      vertex 3.14431 8 12.1
      vertex 11.756 8 13.3
      vertex 3.65602 8 12.1
    endloop
  endfacet
  facet normal 0 1 -2.22045e-16
    outer loop
      vertex 2.90897 8 11.8751
      vertex 1.9 8 11.8557
      vertex 3.02082 8 12.0103
    endloop
  endfacet
  facet normal 0 1 -2.22045e-16
    outer loop
      vertex 3.67508 8 12.091
      vertex 3.65602 8 12.1
      vertex 11.756 8 13.3
    endloop
  endfacet
  facet normal 0 1 -2.22045e-16
    outer loop
      vertex 2.9 8 9.54431
      vertex 1.77918 8 9.38972
      vertex 1.89103 8 9.52492
    endloop
  endfacet
  facet normal 0 1 -2.22045e-16
    outer loop
      vertex 3.02082 8 12.0103
      vertex 1.9 8 11.8557
      vertex 3.14431 8 12.1
    endloop
  endfacet
  facet normal 0 1 -2.22045e-16
    outer loop
      vertex 5.9 8 9.54431
      vertex 3.89103 8 9.52492
      vertex 3.9 8 9.54398
    endloop
  endfacet
  facet normal 0 1 -2.22045e-16
    outer loop
      vertex 2.9 8 11.856
      vertex 1.9 8 11.8557
      vertex 2.90897 8 11.8751
    endloop
  endfacet
  facet normal 0 1 -2.22045e-16
    outer loop
      vertex 3.77918 8 9.38972
      vertex 5.9 8 9.54431
      vertex 5.98972 8 9.42082
    endloop
  endfacet
  facet normal 0 1 -2.22045e-16
    outer loop
      vertex 3.77918 8 9.38972
      vertex 5.98972 8 9.42082
      vertex 6.12492 8 9.30897
    endloop
  endfacet
  facet normal 0 1 -2.22045e-16
    outer loop
      vertex 3.77918 8 9.38972
      vertex 6.12492 8 9.30897
      vertex 6.14398 8 9.3
    endloop
  endfacet
  facet normal 0 1 -2.22045e-16
    outer loop
      vertex 3.77918 8 9.38972
      vertex 6.14398 8 9.3
      vertex 12 8 8.54398
    endloop
  endfacet
  facet normal 0 1 -2.22045e-16
    outer loop
      vertex 6.77918 8 9.38972
      vertex 12 8 8.54398
      vertex 6.65569 8 9.3
    endloop
  endfacet
  facet normal 0 1 -2.22045e-16
    outer loop
      vertex 6.89103 8 9.52492
      vertex 12 8 8.54398
      vertex 6.77918 8 9.38972
    endloop
  endfacet
  facet normal 0 1 -2.22045e-16
    outer loop
      vertex 2.9 8 9.54431
      vertex 1.89103 8 9.52492
      vertex 1.9 8 9.54398
    endloop
  endfacet
  facet normal 0 1 -2.22045e-16
    outer loop
      vertex 8.14431 8 12.1
      vertex 6.9 8 11.8557
      vertex 11.756 8 13.3
    endloop
  endfacet
  facet normal 0 1 -2.22045e-16
    outer loop
      vertex 6.9 8 11.8557
      vertex 6.81028 8 11.9792
      vertex 11.756 8 13.3
    endloop
  endfacet
  facet normal 0 1 -2.22045e-16
    outer loop
      vertex 7.9 8 9.54431
      vertex 6.89103 8 9.52492
      vertex 6.9 8 9.54398
    endloop
  endfacet
  facet normal 0 1 -2.22045e-16
    outer loop
      vertex 6.02082 8 12.0103
      vertex 3.9 8 11.8557
      vertex 6.14431 8 12.1
    endloop
  endfacet
  facet normal 0 1 -2.22045e-16
    outer loop
      vertex 7.9 8 9.54431
      vertex 6.9 8 9.54398
      vertex 6.9 8 11.8557
    endloop
  endfacet
  facet normal 0 1 -2.22045e-16
    outer loop
      vertex 6.67508 8 12.091
      vertex 6.65602 8 12.1
      vertex 11.756 8 13.3
    endloop
  endfacet
  facet normal 0 1 -2.22045e-16
    outer loop
      vertex 7.9 8 9.54431
      vertex 6.9 8 11.8557
      vertex 7.9 8 11.856
    endloop
  endfacet
  facet normal 0 1 -2.22045e-16
    outer loop
      vertex 6.65602 8 12.1
      vertex 6.14431 8 12.1
      vertex 11.756 8 13.3
    endloop
  endfacet
  facet normal 0 1 -2.22045e-16
    outer loop
      vertex 5.90897 8 11.8751
      vertex 3.9 8 11.8557
      vertex 6.02082 8 12.0103
    endloop
  endfacet
  facet normal 0 1 -2.22045e-16
    outer loop
      vertex 5.9 8 11.856
      vertex 3.9 8 11.8557
      vertex 5.90897 8 11.8751
    endloop
  endfacet
  facet normal 0 1 -2.22045e-16
    outer loop
      vertex 8.67508 8 12.091
      vertex 11.7751 8 13.291
      vertex 8.81028 8 11.9792
    endloop
  endfacet
  facet normal 0 1 -2.22045e-16
    outer loop
      vertex 6.89103 8 9.52492
      vertex 7.9 8 9.54431
      vertex 7.98972 8 9.42082
    endloop
  endfacet
  facet normal 0 1 -2.22045e-16
    outer loop
      vertex 6.89103 8 9.52492
      vertex 7.98972 8 9.42082
      vertex 8.12492 8 9.30897
    endloop
  endfacet
  facet normal 0 1 -2.22045e-16
    outer loop
      vertex 6.89103 8 9.52492
      vertex 8.12492 8 9.30897
      vertex 8.14398 8 9.3
    endloop
  endfacet
  facet normal 0 1 -2.22045e-16
    outer loop
      vertex 6.89103 8 9.52492
      vertex 8.14398 8 9.3
      vertex 12 8 8.54398
    endloop
  endfacet
  facet normal 0 1 -2.22045e-16
    outer loop
      vertex 8.77918 8 9.38972
      vertex 12 8 8.54398
      vertex 8.65569 8 9.3
    endloop
  endfacet
  facet normal 0 1 -2.22045e-16
    outer loop
      vertex 10.6751 8 12.091
      vertex 12 8 13.0557
      vertex 10.8103 8 11.9792
    endloop
  endfacet
  facet normal 0 1 -2.22045e-16
    outer loop
      vertex 8.9 8 11.8557
      vertex 10.0208 8 12.0103
      vertex 9.90897 8 11.8751
    endloop
  endfacet
  facet normal 0 1 -2.22045e-16
    outer loop
      vertex 8.9 8 11.8557
      vertex 9.90897 8 11.8751
      vertex 9.9 8 11.856
    endloop
  endfacet
  facet normal 0 1 -2.22045e-16
    outer loop
      vertex 6.67508 8 12.091
      vertex 11.756 8 13.3
      vertex 6.81028 8 11.9792
    endloop
  endfacet
  facet normal 0 1 -2.22045e-16
    outer loop
      vertex 2.9 8 9.54431
      vertex 1.9 8 9.54398
      vertex 1.9 8 11.8557
    endloop
  endfacet
  facet normal 0 1 -2.22045e-16
    outer loop
      vertex 9.9 8 9.54431
      vertex 8.77918 8 9.38972
      vertex 8.89103 8 9.52492
    endloop
  endfacet
  facet normal 0 1 -2.22045e-16
    outer loop
      vertex 2.9 8 9.54431
      vertex 1.9 8 11.8557
      vertex 2.9 8 11.856
    endloop
  endfacet
  facet normal 0 1 -2.22045e-16
    outer loop
      vertex 9.9 8 9.54431
      vertex 8.9 8 11.8557
      vertex 9.9 8 11.856
    endloop
  endfacet
  facet normal 0 1 -2.22045e-16
    outer loop
      vertex 8.67508 8 12.091
      vertex 11.756 8 13.3
      vertex 11.7751 8 13.291
    endloop
  endfacet
  facet normal 0 1 -2.22045e-16
    outer loop
      vertex 9.9 8 9.54431
      vertex 8.9 8 9.54398
      vertex 8.9 8 11.8557
    endloop
  endfacet
  facet normal 0 1 -2.22045e-16
    outer loop
      vertex 6.65569 8 9.3
      vertex 12 8 8.54398
      vertex 6.14398 8 9.3
    endloop
  endfacet
  facet normal 0 1 -2.22045e-16
    outer loop
      vertex 10.6557 8 9.3
      vertex 12 8 8.54398
      vertex 10.144 8 9.3
    endloop
  endfacet
  facet normal 0 1 -2.22045e-16
    outer loop
      vertex 8.77918 8 9.38972
      vertex 9.9 8 9.54431
      vertex 9.98972 8 9.42082
    endloop
  endfacet
  facet normal 0 1 -2.22045e-16
    outer loop
      vertex 8.77918 8 9.38972
      vertex 9.98972 8 9.42082
      vertex 10.1249 8 9.30897
    endloop
  endfacet
  facet normal 0 1 -2.22045e-16
    outer loop
      vertex 8.77918 8 9.38972
      vertex 10.1249 8 9.30897
      vertex 10.144 8 9.3
    endloop
  endfacet
  facet normal 0 1 -2.22045e-16
    outer loop
      vertex 8.77918 8 9.38972
      vertex 10.144 8 9.3
      vertex 12 8 8.54398
    endloop
  endfacet
  facet normal 0 1 -2.22045e-16
    outer loop
      vertex 10.9 8 11.8557
      vertex 12 8 13.0557
      vertex 10.9 8 9.54398
    endloop
  endfacet
  facet normal 0 1 -2.22045e-16
    outer loop
      vertex 10.6557 8 9.3
      vertex 10.7792 8 9.38972
      vertex 12 8 8.54398
    endloop
  endfacet
  facet normal 0 1 -2.22045e-16
    outer loop
      vertex 10.7792 8 9.38972
      vertex 10.891 8 9.52492
      vertex 12 8 8.54398
    endloop
  endfacet
  facet normal 0 1 -2.22045e-16
    outer loop
      vertex 10.891 8 9.52492
      vertex 10.9 8 9.54398
      vertex 12 8 8.54398
    endloop
  endfacet
  facet normal 0 1 -2.22045e-16
    outer loop
      vertex 10.8103 8 11.9792
      vertex 12 8 13.0557
      vertex 10.9 8 11.8557
    endloop
  endfacet
  facet normal 0 1 -2.22045e-16
    outer loop
      vertex 10.1443 8 12.1
      vertex 12 8 13.0557
      vertex 10.656 8 12.1
    endloop
  endfacet
  facet normal 0 1 -2.22045e-16
    outer loop
      vertex 10.656 8 12.1
      vertex 12 8 13.0557
      vertex 10.6751 8 12.091
    endloop
  endfacet
  facet normal 0 1 -2.22045e-16
    outer loop
      vertex 8.65569 8 9.3
      vertex 12 8 8.54398
      vertex 8.14398 8 9.3
    endloop
  endfacet
  facet normal 0 1 -2.22045e-16
    outer loop
      vertex 6.9 8 11.8557
      vertex 8.14431 8 12.1
      vertex 8.02082 8 12.0103
    endloop
  endfacet
  facet normal 0 1 -2.22045e-16
    outer loop
      vertex 9.9 8 9.54431
      vertex 8.89103 8 9.52492
      vertex 8.9 8 9.54398
    endloop
  endfacet
  facet normal 0 1 -2.22045e-16
    outer loop
      vertex 6.9 8 11.8557
      vertex 8.02082 8 12.0103
      vertex 7.90897 8 11.8751
    endloop
  endfacet
  facet normal 0 1 -2.22045e-16
    outer loop
      vertex 6.9 8 11.8557
      vertex 7.90897 8 11.8751
      vertex 7.9 8 11.856
    endloop
  endfacet
  facet normal 0 1 -2.22045e-16
    outer loop
      vertex 3.67508 8 12.091
      vertex 11.756 8 13.3
      vertex 3.81028 8 11.9792
    endloop
  endfacet
  facet normal -0.904827 9.45419e-17 0.425779
    outer loop
      vertex 0.9 8 11.856
      vertex 0.90897 8 11.8751
      vertex 0.9 10 11.856
    endloop
  endfacet
  facet normal -0.904827 9.45419e-17 0.425779
    outer loop
      vertex 0.9 10 11.856
      vertex 0.90897 8 11.8751
      vertex 0.90897 10 11.8751
    endloop
  endfacet
  facet normal -1 0 0
    outer loop
      vertex 0.9 8 9.54431
      vertex 0.9 8 11.856
      vertex 0.9 10 9.54431
    endloop
  endfacet
  facet normal -1 0 0
    outer loop
      vertex 0.9 10 9.54431
      vertex 0.9 8 11.856
      vertex 0.9 10 11.856
    endloop
  endfacet
  facet normal -0.770511 1.41537e-16 0.637426
    outer loop
      vertex 0.90897 8 11.8751
      vertex 1.02082 8 12.0103
      vertex 0.90897 10 11.8751
    endloop
  endfacet
  facet normal -0.770511 1.41537e-16 0.637426
    outer loop
      vertex 0.90897 10 11.8751
      vertex 1.02082 8 12.0103
      vertex 1.02082 10 12.0103
    endloop
  endfacet
  facet normal -0.587788 1.79637e-16 0.809015
    outer loop
      vertex 1.02082 10 12.0103
      vertex 1.02082 8 12.0103
      vertex 1.14431 8 12.1
    endloop
  endfacet
  facet normal -0.587788 1.79637e-16 0.809015
    outer loop
      vertex 1.14431 10 12.1
      vertex 1.02082 10 12.0103
      vertex 1.14431 8 12.1
    endloop
  endfacet
  facet normal 0 2.22045e-16 1
    outer loop
      vertex 1.14431 10 12.1
      vertex 1.14431 8 12.1
      vertex 1.65602 8 12.1
    endloop
  endfacet
  facet normal 0 2.22045e-16 1
    outer loop
      vertex 1.65602 10 12.1
      vertex 1.14431 10 12.1
      vertex 1.65602 8 12.1
    endloop
  endfacet
  facet normal 0.425779 2.00912e-16 0.904827
    outer loop
      vertex 1.65602 10 12.1
      vertex 1.65602 8 12.1
      vertex 1.67508 8 12.091
    endloop
  endfacet
  facet normal 0.425779 2.00912e-16 0.904827
    outer loop
      vertex 1.67508 10 12.091
      vertex 1.65602 10 12.1
      vertex 1.67508 8 12.091
    endloop
  endfacet
  facet normal 0.637426 1.71088e-16 0.770511
    outer loop
      vertex 1.67508 10 12.091
      vertex 1.67508 8 12.091
      vertex 1.81028 8 11.9792
    endloop
  endfacet
  facet normal 0.637426 1.71088e-16 0.770511
    outer loop
      vertex 1.81028 10 11.9792
      vertex 1.67508 10 12.091
      vertex 1.81028 8 11.9792
    endloop
  endfacet
  facet normal 0.809015 1.30515e-16 0.587788
    outer loop
      vertex 1.81028 10 11.9792
      vertex 1.81028 8 11.9792
      vertex 1.9 8 11.8557
    endloop
  endfacet
  facet normal 0.809015 1.30515e-16 0.587788
    outer loop
      vertex 1.9 10 11.8557
      vertex 1.81028 10 11.9792
      vertex 1.9 8 11.8557
    endloop
  endfacet
  facet normal 1 0 0
    outer loop
      vertex 1.9 8 11.8557
      vertex 1.9 8 9.54398
      vertex 1.9 10 9.54398
    endloop
  endfacet
  facet normal 1 0 0
    outer loop
      vertex 1.9 10 11.8557
      vertex 1.9 8 11.8557
      vertex 1.9 10 9.54398
    endloop
  endfacet
  facet normal 0.904827 -9.45419e-17 -0.425779
    outer loop
      vertex 1.9 8 9.54398
      vertex 1.89103 8 9.52492
      vertex 1.89103 10 9.52492
    endloop
  endfacet
  facet normal 0.904827 -9.45419e-17 -0.425779
    outer loop
      vertex 1.9 10 9.54398
      vertex 1.9 8 9.54398
      vertex 1.89103 10 9.52492
    endloop
  endfacet
  facet normal 0.770511 -1.41537e-16 -0.637426
    outer loop
      vertex 1.89103 8 9.52492
      vertex 1.77918 8 9.38972
      vertex 1.77918 10 9.38972
    endloop
  endfacet
  facet normal 0.770511 -1.41537e-16 -0.637426
    outer loop
      vertex 1.89103 10 9.52492
      vertex 1.89103 8 9.52492
      vertex 1.77918 10 9.38972
    endloop
  endfacet
  facet normal 0.587788 -1.79637e-16 -0.809015
    outer loop
      vertex 1.65569 8 9.3
      vertex 1.65569 10 9.3
      vertex 1.77918 8 9.38972
    endloop
  endfacet
  facet normal 0.587788 -1.79637e-16 -0.809015
    outer loop
      vertex 1.77918 8 9.38972
      vertex 1.65569 10 9.3
      vertex 1.77918 10 9.38972
    endloop
  endfacet
  facet normal 0 -2.22045e-16 -1
    outer loop
      vertex 1.14398 8 9.3
      vertex 1.14398 10 9.3
      vertex 1.65569 8 9.3
    endloop
  endfacet
  facet normal 0 -2.22045e-16 -1
    outer loop
      vertex 1.65569 8 9.3
      vertex 1.14398 10 9.3
      vertex 1.65569 10 9.3
    endloop
  endfacet
  facet normal -0.425779 -2.00912e-16 -0.904827
    outer loop
      vertex 1.12492 8 9.30897
      vertex 1.12492 10 9.30897
      vertex 1.14398 8 9.3
    endloop
  endfacet
  facet normal -0.425779 -2.00912e-16 -0.904827
    outer loop
      vertex 1.14398 8 9.3
      vertex 1.12492 10 9.30897
      vertex 1.14398 10 9.3
    endloop
  endfacet
  facet normal -0.637426 -1.71088e-16 -0.770511
    outer loop
      vertex 0.989722 8 9.42082
      vertex 0.989722 10 9.42082
      vertex 1.12492 8 9.30897
    endloop
  endfacet
  facet normal -0.637426 -1.71088e-16 -0.770511
    outer loop
      vertex 1.12492 8 9.30897
      vertex 0.989722 10 9.42082
      vertex 1.12492 10 9.30897
    endloop
  endfacet
  facet normal -0.809015 -1.30515e-16 -0.587788
    outer loop
      vertex 0.9 8 9.54431
      vertex 0.9 10 9.54431
      vertex 0.989722 8 9.42082
    endloop
  endfacet
  facet normal -0.809015 -1.30515e-16 -0.587788
    outer loop
      vertex 0.989722 8 9.42082
      vertex 0.9 10 9.54431
      vertex 0.989722 10 9.42082
    endloop
  endfacet
  facet normal -1 0 0
    outer loop
      vertex 2.9 8 9.54431
      vertex 2.9 8 11.856
      vertex 2.9 10 9.54431
    endloop
  endfacet
  facet normal -1 0 0
    outer loop
      vertex 2.9 10 9.54431
      vertex 2.9 8 11.856
      vertex 2.9 10 11.856
    endloop
  endfacet
  facet normal -0.904827 9.45419e-17 0.425779
    outer loop
      vertex 2.9 8 11.856
      vertex 2.90897 8 11.8751
      vertex 2.9 10 11.856
    endloop
  endfacet
  facet normal -0.904827 9.45419e-17 0.425779
    outer loop
      vertex 2.9 10 11.856
      vertex 2.90897 8 11.8751
      vertex 2.90897 10 11.8751
    endloop
  endfacet
  facet normal -0.770511 1.41537e-16 0.637426
    outer loop
      vertex 2.90897 8 11.8751
      vertex 3.02082 8 12.0103
      vertex 2.90897 10 11.8751
    endloop
  endfacet
  facet normal -0.770511 1.41537e-16 0.637426
    outer loop
      vertex 2.90897 10 11.8751
      vertex 3.02082 8 12.0103
      vertex 3.02082 10 12.0103
    endloop
  endfacet
  facet normal -0.587788 1.79637e-16 0.809015
    outer loop
      vertex 3.02082 10 12.0103
      vertex 3.02082 8 12.0103
      vertex 3.14431 8 12.1
    endloop
  endfacet
  facet normal -0.587788 1.79637e-16 0.809015
    outer loop
      vertex 3.14431 10 12.1
      vertex 3.02082 10 12.0103
      vertex 3.14431 8 12.1
    endloop
  endfacet
  facet normal 0 2.22045e-16 1
    outer loop
      vertex 3.14431 10 12.1
      vertex 3.14431 8 12.1
      vertex 3.65602 8 12.1
    endloop
  endfacet
  facet normal 0 2.22045e-16 1
    outer loop
      vertex 3.65602 10 12.1
      vertex 3.14431 10 12.1
      vertex 3.65602 8 12.1
    endloop
  endfacet
  facet normal 0.425779 2.00912e-16 0.904827
    outer loop
      vertex 3.65602 10 12.1
      vertex 3.65602 8 12.1
      vertex 3.67508 8 12.091
    endloop
  endfacet
  facet normal 0.425779 2.00912e-16 0.904827
    outer loop
      vertex 3.67508 10 12.091
      vertex 3.65602 10 12.1
      vertex 3.67508 8 12.091
    endloop
  endfacet
  facet normal 0.637426 1.71088e-16 0.770511
    outer loop
      vertex 3.67508 10 12.091
      vertex 3.67508 8 12.091
      vertex 3.81028 8 11.9792
    endloop
  endfacet
  facet normal 0.637426 1.71088e-16 0.770511
    outer loop
      vertex 3.81028 10 11.9792
      vertex 3.67508 10 12.091
      vertex 3.81028 8 11.9792
    endloop
  endfacet
  facet normal 0.809015 1.30515e-16 0.587788
    outer loop
      vertex 3.81028 10 11.9792
      vertex 3.81028 8 11.9792
      vertex 3.9 8 11.8557
    endloop
  endfacet
  facet normal 0.809015 1.30515e-16 0.587788
    outer loop
      vertex 3.9 10 11.8557
      vertex 3.81028 10 11.9792
      vertex 3.9 8 11.8557
    endloop
  endfacet
  facet normal 1 0 0
    outer loop
      vertex 3.9 8 11.8557
      vertex 3.9 8 9.54398
      vertex 3.9 10 9.54398
    endloop
  endfacet
  facet normal 1 0 0
    outer loop
      vertex 3.9 10 11.8557
      vertex 3.9 8 11.8557
      vertex 3.9 10 9.54398
    endloop
  endfacet
  facet normal 0.904827 -9.45419e-17 -0.425779
    outer loop
      vertex 3.9 8 9.54398
      vertex 3.89103 8 9.52492
      vertex 3.89103 10 9.52492
    endloop
  endfacet
  facet normal 0.904827 -9.45419e-17 -0.425779
    outer loop
      vertex 3.9 10 9.54398
      vertex 3.9 8 9.54398
      vertex 3.89103 10 9.52492
    endloop
  endfacet
  facet normal 0.770511 -1.41537e-16 -0.637426
    outer loop
      vertex 3.89103 8 9.52492
      vertex 3.77918 8 9.38972
      vertex 3.77918 10 9.38972
    endloop
  endfacet
  facet normal 0.770511 -1.41537e-16 -0.637426
    outer loop
      vertex 3.89103 10 9.52492
      vertex 3.89103 8 9.52492
      vertex 3.77918 10 9.38972
    endloop
  endfacet
  facet normal 0.587788 -1.79637e-16 -0.809015
    outer loop
      vertex 3.65569 8 9.3
      vertex 3.65569 10 9.3
      vertex 3.77918 8 9.38972
    endloop
  endfacet
  facet normal 0.587788 -1.79637e-16 -0.809015
    outer loop
      vertex 3.77918 8 9.38972
      vertex 3.65569 10 9.3
      vertex 3.77918 10 9.38972
    endloop
  endfacet
  facet normal 0 -2.22045e-16 -1
    outer loop
      vertex 3.14398 8 9.3
      vertex 3.14398 10 9.3
      vertex 3.65569 8 9.3
    endloop
  endfacet
  facet normal 0 -2.22045e-16 -1
    outer loop
      vertex 3.65569 8 9.3
      vertex 3.14398 10 9.3
      vertex 3.65569 10 9.3
    endloop
  endfacet
  facet normal -0.425779 -2.00912e-16 -0.904827
    outer loop
      vertex 3.12492 8 9.30897
      vertex 3.12492 10 9.30897
      vertex 3.14398 8 9.3
    endloop
  endfacet
  facet normal -0.425779 -2.00912e-16 -0.904827
    outer loop
      vertex 3.14398 8 9.3
      vertex 3.12492 10 9.30897
      vertex 3.14398 10 9.3
    endloop
  endfacet
  facet normal -0.637426 -1.71088e-16 -0.770511
    outer loop
      vertex 2.98972 8 9.42082
      vertex 2.98972 10 9.42082
      vertex 3.12492 8 9.30897
    endloop
  endfacet
  facet normal -0.637426 -1.71088e-16 -0.770511
    outer loop
      vertex 3.12492 8 9.30897
      vertex 2.98972 10 9.42082
      vertex 3.12492 10 9.30897
    endloop
  endfacet
  facet normal -0.809015 -1.30515e-16 -0.587788
    outer loop
      vertex 2.9 8 9.54431
      vertex 2.9 10 9.54431
      vertex 2.98972 8 9.42082
    endloop
  endfacet
  facet normal -0.809015 -1.30515e-16 -0.587788
    outer loop
      vertex 2.98972 8 9.42082
      vertex 2.9 10 9.54431
      vertex 2.98972 10 9.42082
    endloop
  endfacet
  facet normal -1 0 0
    outer loop
      vertex 5.9 8 9.54431
      vertex 5.9 8 11.856
      vertex 5.9 10 9.54431
    endloop
  endfacet
  facet normal -1 0 0
    outer loop
      vertex 5.9 10 9.54431
      vertex 5.9 8 11.856
      vertex 5.9 10 11.856
    endloop
  endfacet
  facet normal -0.904827 9.45419e-17 0.425779
    outer loop
      vertex 5.9 8 11.856
      vertex 5.90897 8 11.8751
      vertex 5.9 10 11.856
    endloop
  endfacet
  facet normal -0.904827 9.45419e-17 0.425779
    outer loop
      vertex 5.9 10 11.856
      vertex 5.90897 8 11.8751
      vertex 5.90897 10 11.8751
    endloop
  endfacet
  facet normal -0.770511 1.41537e-16 0.637426
    outer loop
      vertex 5.90897 8 11.8751
      vertex 6.02082 8 12.0103
      vertex 5.90897 10 11.8751
    endloop
  endfacet
  facet normal -0.770511 1.41537e-16 0.637426
    outer loop
      vertex 5.90897 10 11.8751
      vertex 6.02082 8 12.0103
      vertex 6.02082 10 12.0103
    endloop
  endfacet
  facet normal -0.587788 1.79637e-16 0.809015
    outer loop
      vertex 6.02082 10 12.0103
      vertex 6.02082 8 12.0103
      vertex 6.14431 8 12.1
    endloop
  endfacet
  facet normal -0.587788 1.79637e-16 0.809015
    outer loop
      vertex 6.14431 10 12.1
      vertex 6.02082 10 12.0103
      vertex 6.14431 8 12.1
    endloop
  endfacet
  facet normal 0 2.22045e-16 1
    outer loop
      vertex 6.14431 10 12.1
      vertex 6.14431 8 12.1
      vertex 6.65602 8 12.1
    endloop
  endfacet
  facet normal 0 2.22045e-16 1
    outer loop
      vertex 6.65602 10 12.1
      vertex 6.14431 10 12.1
      vertex 6.65602 8 12.1
    endloop
  endfacet
  facet normal 0.425779 2.00912e-16 0.904827
    outer loop
      vertex 6.65602 10 12.1
      vertex 6.65602 8 12.1
      vertex 6.67508 8 12.091
    endloop
  endfacet
  facet normal 0.425779 2.00912e-16 0.904827
    outer loop
      vertex 6.67508 10 12.091
      vertex 6.65602 10 12.1
      vertex 6.67508 8 12.091
    endloop
  endfacet
  facet normal 0.637426 1.71088e-16 0.770511
    outer loop
      vertex 6.67508 10 12.091
      vertex 6.67508 8 12.091
      vertex 6.81028 8 11.9792
    endloop
  endfacet
  facet normal 0.637426 1.71088e-16 0.770511
    outer loop
      vertex 6.81028 10 11.9792
      vertex 6.67508 10 12.091
      vertex 6.81028 8 11.9792
    endloop
  endfacet
  facet normal 0.809015 1.30515e-16 0.587788
    outer loop
      vertex 6.81028 10 11.9792
      vertex 6.81028 8 11.9792
      vertex 6.9 8 11.8557
    endloop
  endfacet
  facet normal 0.809015 1.30515e-16 0.587788
    outer loop
      vertex 6.9 10 11.8557
      vertex 6.81028 10 11.9792
      vertex 6.9 8 11.8557
    endloop
  endfacet
  facet normal 1 0 0
    outer loop
      vertex 6.9 8 11.8557
      vertex 6.9 8 9.54398
      vertex 6.9 10 9.54398
    endloop
  endfacet
  facet normal 1 0 0
    outer loop
      vertex 6.9 10 11.8557
      vertex 6.9 8 11.8557
      vertex 6.9 10 9.54398
    endloop
  endfacet
  facet normal 0.904827 -9.45419e-17 -0.425779
    outer loop
      vertex 6.9 8 9.54398
      vertex 6.89103 8 9.52492
      vertex 6.89103 10 9.52492
    endloop
  endfacet
  facet normal 0.904827 -9.45419e-17 -0.425779
    outer loop
      vertex 6.9 10 9.54398
      vertex 6.9 8 9.54398
      vertex 6.89103 10 9.52492
    endloop
  endfacet
  facet normal 0.770511 -1.41537e-16 -0.637426
    outer loop
      vertex 6.89103 8 9.52492
      vertex 6.77918 8 9.38972
      vertex 6.77918 10 9.38972
    endloop
  endfacet
  facet normal 0.770511 -1.41537e-16 -0.637426
    outer loop
      vertex 6.89103 10 9.52492
      vertex 6.89103 8 9.52492
      vertex 6.77918 10 9.38972
    endloop
  endfacet
  facet normal 0.587788 -1.79637e-16 -0.809015
    outer loop
      vertex 6.65569 8 9.3
      vertex 6.65569 10 9.3
      vertex 6.77918 8 9.38972
    endloop
  endfacet
  facet normal 0.587788 -1.79637e-16 -0.809015
    outer loop
      vertex 6.77918 8 9.38972
      vertex 6.65569 10 9.3
      vertex 6.77918 10 9.38972
    endloop
  endfacet
  facet normal 0 -2.22045e-16 -1
    outer loop
      vertex 6.14398 8 9.3
      vertex 6.14398 10 9.3
      vertex 6.65569 8 9.3
    endloop
  endfacet
  facet normal 0 -2.22045e-16 -1
    outer loop
      vertex 6.65569 8 9.3
      vertex 6.14398 10 9.3
      vertex 6.65569 10 9.3
    endloop
  endfacet
  facet normal -0.425779 -2.00912e-16 -0.904827
    outer loop
      vertex 6.12492 8 9.30897
      vertex 6.12492 10 9.30897
      vertex 6.14398 8 9.3
    endloop
  endfacet
  facet normal -0.425779 -2.00912e-16 -0.904827
    outer loop
      vertex 6.14398 8 9.3
      vertex 6.12492 10 9.30897
      vertex 6.14398 10 9.3
    endloop
  endfacet
  facet normal -0.637426 -1.71088e-16 -0.770511
    outer loop
      vertex 5.98972 8 9.42082
      vertex 5.98972 10 9.42082
      vertex 6.12492 8 9.30897
    endloop
  endfacet
  facet normal -0.637426 -1.71088e-16 -0.770511
    outer loop
      vertex 6.12492 8 9.30897
      vertex 5.98972 10 9.42082
      vertex 6.12492 10 9.30897
    endloop
  endfacet
  facet normal -0.809015 -1.30515e-16 -0.587788
    outer loop
      vertex 5.9 8 9.54431
      vertex 5.9 10 9.54431
      vertex 5.98972 8 9.42082
    endloop
  endfacet
  facet normal -0.809015 -1.30515e-16 -0.587788
    outer loop
      vertex 5.98972 8 9.42082
      vertex 5.9 10 9.54431
      vertex 5.98972 10 9.42082
    endloop
  endfacet
  facet normal -1 0 0
    outer loop
      vertex 7.9 8 9.54431
      vertex 7.9 8 11.856
      vertex 7.9 10 9.54431
    endloop
  endfacet
  facet normal -1 0 0
    outer loop
      vertex 7.9 10 9.54431
      vertex 7.9 8 11.856
      vertex 7.9 10 11.856
    endloop
  endfacet
  facet normal -0.904827 9.45419e-17 0.425779
    outer loop
      vertex 7.9 8 11.856
      vertex 7.90897 8 11.8751
      vertex 7.9 10 11.856
    endloop
  endfacet
  facet normal -0.904827 9.45419e-17 0.425779
    outer loop
      vertex 7.9 10 11.856
      vertex 7.90897 8 11.8751
      vertex 7.90897 10 11.8751
    endloop
  endfacet
  facet normal -0.770511 1.41537e-16 0.637426
    outer loop
      vertex 7.90897 8 11.8751
      vertex 8.02082 8 12.0103
      vertex 7.90897 10 11.8751
    endloop
  endfacet
  facet normal -0.770511 1.41537e-16 0.637426
    outer loop
      vertex 7.90897 10 11.8751
      vertex 8.02082 8 12.0103
      vertex 8.02082 10 12.0103
    endloop
  endfacet
  facet normal -0.587788 1.79637e-16 0.809015
    outer loop
      vertex 8.02082 10 12.0103
      vertex 8.02082 8 12.0103
      vertex 8.14431 8 12.1
    endloop
  endfacet
  facet normal -0.587788 1.79637e-16 0.809015
    outer loop
      vertex 8.14431 10 12.1
      vertex 8.02082 10 12.0103
      vertex 8.14431 8 12.1
    endloop
  endfacet
  facet normal 0 2.22045e-16 1
    outer loop
      vertex 8.14431 10 12.1
      vertex 8.14431 8 12.1
      vertex 8.65602 8 12.1
    endloop
  endfacet
  facet normal 0 2.22045e-16 1
    outer loop
      vertex 8.65602 10 12.1
      vertex 8.14431 10 12.1
      vertex 8.65602 8 12.1
    endloop
  endfacet
  facet normal 0.425779 2.00912e-16 0.904827
    outer loop
      vertex 8.65602 10 12.1
      vertex 8.65602 8 12.1
      vertex 8.67508 8 12.091
    endloop
  endfacet
  facet normal 0.425779 2.00912e-16 0.904827
    outer loop
      vertex 8.67508 10 12.091
      vertex 8.65602 10 12.1
      vertex 8.67508 8 12.091
    endloop
  endfacet
  facet normal 0.637426 1.71088e-16 0.770511
    outer loop
      vertex 8.67508 10 12.091
      vertex 8.67508 8 12.091
      vertex 8.81028 8 11.9792
    endloop
  endfacet
  facet normal 0.637426 1.71088e-16 0.770511
    outer loop
      vertex 8.81028 10 11.9792
      vertex 8.67508 10 12.091
      vertex 8.81028 8 11.9792
    endloop
  endfacet
  facet normal 0.809015 1.30515e-16 0.587788
    outer loop
      vertex 8.81028 10 11.9792
      vertex 8.81028 8 11.9792
      vertex 8.9 8 11.8557
    endloop
  endfacet
  facet normal 0.809015 1.30515e-16 0.587788
    outer loop
      vertex 8.9 10 11.8557
      vertex 8.81028 10 11.9792
      vertex 8.9 8 11.8557
    endloop
  endfacet
  facet normal 1 0 0
    outer loop
      vertex 8.9 8 11.8557
      vertex 8.9 8 9.54398
      vertex 8.9 10 9.54398
    endloop
  endfacet
  facet normal 1 0 0
    outer loop
      vertex 8.9 10 11.8557
      vertex 8.9 8 11.8557
      vertex 8.9 10 9.54398
    endloop
  endfacet
  facet normal 0.904827 -9.45419e-17 -0.425779
    outer loop
      vertex 8.9 8 9.54398
      vertex 8.89103 8 9.52492
      vertex 8.89103 10 9.52492
    endloop
  endfacet
  facet normal 0.904827 -9.45419e-17 -0.425779
    outer loop
      vertex 8.9 10 9.54398
      vertex 8.9 8 9.54398
      vertex 8.89103 10 9.52492
    endloop
  endfacet
  facet normal 0.770511 -1.41537e-16 -0.637426
    outer loop
      vertex 8.89103 8 9.52492
      vertex 8.77918 8 9.38972
      vertex 8.77918 10 9.38972
    endloop
  endfacet
  facet normal 0.770511 -1.41537e-16 -0.637426
    outer loop
      vertex 8.89103 10 9.52492
      vertex 8.89103 8 9.52492
      vertex 8.77918 10 9.38972
    endloop
  endfacet
  facet normal 0.587788 -1.79637e-16 -0.809015
    outer loop
      vertex 8.65569 8 9.3
      vertex 8.65569 10 9.3
      vertex 8.77918 8 9.38972
    endloop
  endfacet
  facet normal 0.587788 -1.79637e-16 -0.809015
    outer loop
      vertex 8.77918 8 9.38972
      vertex 8.65569 10 9.3
      vertex 8.77918 10 9.38972
    endloop
  endfacet
  facet normal 0 -2.22045e-16 -1
    outer loop
      vertex 8.14398 8 9.3
      vertex 8.14398 10 9.3
      vertex 8.65569 8 9.3
    endloop
  endfacet
  facet normal 0 -2.22045e-16 -1
    outer loop
      vertex 8.65569 8 9.3
      vertex 8.14398 10 9.3
      vertex 8.65569 10 9.3
    endloop
  endfacet
  facet normal -0.425779 -2.00912e-16 -0.904827
    outer loop
      vertex 8.12492 8 9.30897
      vertex 8.12492 10 9.30897
      vertex 8.14398 8 9.3
    endloop
  endfacet
  facet normal -0.425779 -2.00912e-16 -0.904827
    outer loop
      vertex 8.14398 8 9.3
      vertex 8.12492 10 9.30897
      vertex 8.14398 10 9.3
    endloop
  endfacet
  facet normal -0.637426 -1.71088e-16 -0.770511
    outer loop
      vertex 7.98972 8 9.42082
      vertex 7.98972 10 9.42082
      vertex 8.12492 8 9.30897
    endloop
  endfacet
  facet normal -0.637426 -1.71088e-16 -0.770511
    outer loop
      vertex 8.12492 8 9.30897
      vertex 7.98972 10 9.42082
      vertex 8.12492 10 9.30897
    endloop
  endfacet
  facet normal -0.809015 -1.30515e-16 -0.587788
    outer loop
      vertex 7.9 8 9.54431
      vertex 7.9 10 9.54431
      vertex 7.98972 8 9.42082
    endloop
  endfacet
  facet normal -0.809015 -1.30515e-16 -0.587788
    outer loop
      vertex 7.98972 8 9.42082
      vertex 7.9 10 9.54431
      vertex 7.98972 10 9.42082
    endloop
  endfacet
  facet normal -1 0 0
    outer loop
      vertex 9.9 8 9.54431
      vertex 9.9 8 11.856
      vertex 9.9 10 9.54431
    endloop
  endfacet
  facet normal -1 0 0
    outer loop
      vertex 9.9 10 9.54431
      vertex 9.9 8 11.856
      vertex 9.9 10 11.856
    endloop
  endfacet
  facet normal -0.904827 9.45419e-17 0.425779
    outer loop
      vertex 9.9 8 11.856
      vertex 9.90897 8 11.8751
      vertex 9.9 10 11.856
    endloop
  endfacet
  facet normal -0.904827 9.45419e-17 0.425779
    outer loop
      vertex 9.9 10 11.856
      vertex 9.90897 8 11.8751
      vertex 9.90897 10 11.8751
    endloop
  endfacet
  facet normal -0.770511 1.41537e-16 0.637426
    outer loop
      vertex 9.90897 8 11.8751
      vertex 10.0208 8 12.0103
      vertex 9.90897 10 11.8751
    endloop
  endfacet
  facet normal -0.770511 1.41537e-16 0.637426
    outer loop
      vertex 9.90897 10 11.8751
      vertex 10.0208 8 12.0103
      vertex 10.0208 10 12.0103
    endloop
  endfacet
  facet normal -0.587788 1.79637e-16 0.809015
    outer loop
      vertex 10.0208 10 12.0103
      vertex 10.0208 8 12.0103
      vertex 10.1443 8 12.1
    endloop
  endfacet
  facet normal -0.587788 1.79637e-16 0.809015
    outer loop
      vertex 10.1443 10 12.1
      vertex 10.0208 10 12.0103
      vertex 10.1443 8 12.1
    endloop
  endfacet
  facet normal 0 2.22045e-16 1
    outer loop
      vertex 10.1443 10 12.1
      vertex 10.1443 8 12.1
      vertex 10.656 8 12.1
    endloop
  endfacet
  facet normal 0 2.22045e-16 1
    outer loop
      vertex 10.656 10 12.1
      vertex 10.1443 10 12.1
      vertex 10.656 8 12.1
    endloop
  endfacet
  facet normal 0.425779 2.00912e-16 0.904827
    outer loop
      vertex 10.656 10 12.1
      vertex 10.656 8 12.1
      vertex 10.6751 8 12.091
    endloop
  endfacet
  facet normal 0.425779 2.00912e-16 0.904827
    outer loop
      vertex 10.6751 10 12.091
      vertex 10.656 10 12.1
      vertex 10.6751 8 12.091
    endloop
  endfacet
  facet normal 0.637426 1.71088e-16 0.770511
    outer loop
      vertex 10.6751 10 12.091
      vertex 10.6751 8 12.091
      vertex 10.8103 8 11.9792
    endloop
  endfacet
  facet normal 0.637426 1.71088e-16 0.770511
    outer loop
      vertex 10.8103 10 11.9792
      vertex 10.6751 10 12.091
      vertex 10.8103 8 11.9792
    endloop
  endfacet
  facet normal 0.809015 1.30515e-16 0.587788
    outer loop
      vertex 10.8103 10 11.9792
      vertex 10.8103 8 11.9792
      vertex 10.9 8 11.8557
    endloop
  endfacet
  facet normal 0.809015 1.30515e-16 0.587788
    outer loop
      vertex 10.9 10 11.8557
      vertex 10.8103 10 11.9792
      vertex 10.9 8 11.8557
    endloop
  endfacet
  facet normal 1 0 0
    outer loop
      vertex 10.9 8 11.8557
      vertex 10.9 8 9.54398
      vertex 10.9 10 9.54398
    endloop
  endfacet
  facet normal 1 0 0
    outer loop
      vertex 10.9 10 11.8557
      vertex 10.9 8 11.8557
      vertex 10.9 10 9.54398
    endloop
  endfacet
  facet normal 0.904827 -9.45419e-17 -0.425779
    outer loop
      vertex 10.9 8 9.54398
      vertex 10.891 8 9.52492
      vertex 10.891 10 9.52492
    endloop
  endfacet
  facet normal 0.904827 -9.45419e-17 -0.425779
    outer loop
      vertex 10.9 10 9.54398
      vertex 10.9 8 9.54398
      vertex 10.891 10 9.52492
    endloop
  endfacet
  facet normal 0.770511 -1.41537e-16 -0.637426
    outer loop
      vertex 10.891 8 9.52492
      vertex 10.7792 8 9.38972
      vertex 10.7792 10 9.38972
    endloop
  endfacet
  facet normal 0.770511 -1.41537e-16 -0.637426
    outer loop
      vertex 10.891 10 9.52492
      vertex 10.891 8 9.52492
      vertex 10.7792 10 9.38972
    endloop
  endfacet
  facet normal 0.587788 -1.79637e-16 -0.809015
    outer loop
      vertex 10.6557 8 9.3
      vertex 10.6557 10 9.3
      vertex 10.7792 8 9.38972
    endloop
  endfacet
  facet normal 0.587788 -1.79637e-16 -0.809015
    outer loop
      vertex 10.7792 8 9.38972
      vertex 10.6557 10 9.3
      vertex 10.7792 10 9.38972
    endloop
  endfacet
  facet normal 0 -2.22045e-16 -1
    outer loop
      vertex 10.144 8 9.3
      vertex 10.144 10 9.3
      vertex 10.6557 8 9.3
    endloop
  endfacet
  facet normal 0 -2.22045e-16 -1
    outer loop
      vertex 10.6557 8 9.3
      vertex 10.144 10 9.3
      vertex 10.6557 10 9.3
    endloop
  endfacet
  facet normal -0.425779 -2.00912e-16 -0.904827
    outer loop
      vertex 10.1249 8 9.30897
      vertex 10.1249 10 9.30897
      vertex 10.144 8 9.3
    endloop
  endfacet
  facet normal -0.425779 -2.00912e-16 -0.904827
    outer loop
      vertex 10.144 8 9.3
      vertex 10.1249 10 9.30897
      vertex 10.144 10 9.3
    endloop
  endfacet
  facet normal -0.637426 -1.71088e-16 -0.770511
    outer loop
      vertex 9.98972 8 9.42082
      vertex 9.98972 10 9.42082
      vertex 10.1249 8 9.30897
    endloop
  endfacet
  facet normal -0.637426 -1.71088e-16 -0.770511
    outer loop
      vertex 10.1249 8 9.30897
      vertex 9.98972 10 9.42082
      vertex 10.1249 10 9.30897
    endloop
  endfacet
  facet normal -0.809015 -1.30515e-16 -0.587788
    outer loop
      vertex 9.9 8 9.54431
      vertex 9.9 10 9.54431
      vertex 9.98972 8 9.42082
    endloop
  endfacet
  facet normal -0.809015 -1.30515e-16 -0.587788
    outer loop
      vertex 9.98972 8 9.42082
      vertex 9.9 10 9.54431
      vertex 9.98972 10 9.42082
    endloop
  endfacet
  facet normal 0 1 -2.22045e-16
    outer loop
      vertex 0.9 10 9.54431
      vertex 0.9 10 11.856
      vertex 0.989722 10 9.42082
    endloop
  endfacet
  facet normal 0 1 -2.22045e-16
    outer loop
      vertex 0.989722 10 9.42082
      vertex 0.9 10 11.856
      vertex 0.90897 10 11.8751
    endloop
  endfacet
  facet normal 0 1 -2.22045e-16
    outer loop
      vertex 0.989722 10 9.42082
      vertex 0.90897 10 11.8751
      vertex 1.02082 10 12.0103
    endloop
  endfacet
  facet normal 0 1 -2.22045e-16
    outer loop
      vertex 0.989722 10 9.42082
      vertex 1.02082 10 12.0103
      vertex 1.14431 10 12.1
    endloop
  endfacet
  facet normal 0 1 -2.22045e-16
    outer loop
      vertex 0.989722 10 9.42082
      vertex 1.14431 10 12.1
      vertex 1.65602 10 12.1
    endloop
  endfacet
  facet normal 0 1 -2.22045e-16
    outer loop
      vertex 0.989722 10 9.42082
      vertex 1.65602 10 12.1
      vertex 1.67508 10 12.091
    endloop
  endfacet
  facet normal 0 1 -2.22045e-16
    outer loop
      vertex 0.989722 10 9.42082
      vertex 1.67508 10 12.091
      vertex 1.81028 10 11.9792
    endloop
  endfacet
  facet normal 0 1 -2.22045e-16
    outer loop
      vertex 0.989722 10 9.42082
      vertex 1.81028 10 11.9792
      vertex 1.9 10 11.8557
    endloop
  endfacet
  facet normal 0 1 -2.22045e-16
    outer loop
      vertex 0.989722 10 9.42082
      vertex 1.9 10 11.8557
      vertex 1.9 10 9.54398
    endloop
  endfacet
  facet normal 0 1 -2.22045e-16
    outer loop
      vertex 0.989722 10 9.42082
      vertex 1.9 10 9.54398
      vertex 1.89103 10 9.52492
    endloop
  endfacet
  facet normal 0 1 -2.22045e-16
    outer loop
      vertex 0.989722 10 9.42082
      vertex 1.89103 10 9.52492
      vertex 1.77918 10 9.38972
    endloop
  endfacet
  facet normal 0 1 -2.22045e-16
    outer loop
      vertex 0.989722 10 9.42082
      vertex 1.77918 10 9.38972
      vertex 1.65569 10 9.3
    endloop
  endfacet
  facet normal 0 1 -2.22045e-16
    outer loop
      vertex 0.989722 10 9.42082
      vertex 1.65569 10 9.3
      vertex 1.14398 10 9.3
    endloop
  endfacet
  facet normal 0 1 -2.22045e-16
    outer loop
      vertex 0.989722 10 9.42082
      vertex 1.14398 10 9.3
      vertex 1.12492 10 9.30897
    endloop
  endfacet
  facet normal 0 1 -2.22045e-16
    outer loop
      vertex 2.9 10 9.54431
      vertex 2.9 10 11.856
      vertex 2.98972 10 9.42082
    endloop
  endfacet
  facet normal 0 1 -2.22045e-16
    outer loop
      vertex 2.98972 10 9.42082
      vertex 2.9 10 11.856
      vertex 2.90897 10 11.8751
    endloop
  endfacet
  facet normal 0 1 -2.22045e-16
    outer loop
      vertex 2.98972 10 9.42082
      vertex 2.90897 10 11.8751
      vertex 3.02082 10 12.0103
    endloop
  endfacet
  facet normal 0 1 -2.22045e-16
    outer loop
      vertex 2.98972 10 9.42082
      vertex 3.02082 10 12.0103
      vertex 3.14431 10 12.1
    endloop
  endfacet
  facet normal 0 1 -2.22045e-16
    outer loop
      vertex 2.98972 10 9.42082
      vertex 3.14431 10 12.1
      vertex 3.65602 10 12.1
    endloop
  endfacet
  facet normal 0 1 -2.22045e-16
    outer loop
      vertex 2.98972 10 9.42082
      vertex 3.65602 10 12.1
      vertex 3.67508 10 12.091
    endloop
  endfacet
  facet normal 0 1 -2.22045e-16
    outer loop
      vertex 2.98972 10 9.42082
      vertex 3.67508 10 12.091
      vertex 3.81028 10 11.9792
    endloop
  endfacet
  facet normal 0 1 -2.22045e-16
    outer loop
      vertex 2.98972 10 9.42082
      vertex 3.81028 10 11.9792
      vertex 3.9 10 11.8557
    endloop
  endfacet
  facet normal 0 1 -2.22045e-16
    outer loop
      vertex 2.98972 10 9.42082
      vertex 3.9 10 11.8557
      vertex 3.9 10 9.54398
    endloop
  endfacet
  facet normal 0 1 -2.22045e-16
    outer loop
      vertex 2.98972 10 9.42082
      vertex 3.9 10 9.54398
      vertex 3.89103 10 9.52492
    endloop
  endfacet
  facet normal 0 1 -2.22045e-16
    outer loop
      vertex 2.98972 10 9.42082
      vertex 3.89103 10 9.52492
      vertex 3.77918 10 9.38972
    endloop
  endfacet
  facet normal 0 1 -2.22045e-16
    outer loop
      vertex 2.98972 10 9.42082
      vertex 3.77918 10 9.38972
      vertex 3.65569 10 9.3
    endloop
  endfacet
  facet normal 0 1 -2.22045e-16
    outer loop
      vertex 2.98972 10 9.42082
      vertex 3.65569 10 9.3
      vertex 3.14398 10 9.3
    endloop
  endfacet
  facet normal 0 1 -2.22045e-16
    outer loop
      vertex 2.98972 10 9.42082
      vertex 3.14398 10 9.3
      vertex 3.12492 10 9.30897
    endloop
  endfacet
  facet normal 0 1 -2.22045e-16
    outer loop
      vertex 5.9 10 9.54431
      vertex 5.9 10 11.856
      vertex 5.98972 10 9.42082
    endloop
  endfacet
  facet normal 0 1 -2.22045e-16
    outer loop
      vertex 5.98972 10 9.42082
      vertex 5.9 10 11.856
      vertex 5.90897 10 11.8751
    endloop
  endfacet
  facet normal 0 1 -2.22045e-16
    outer loop
      vertex 5.98972 10 9.42082
      vertex 5.90897 10 11.8751
      vertex 6.02082 10 12.0103
    endloop
  endfacet
  facet normal 0 1 -2.22045e-16
    outer loop
      vertex 5.98972 10 9.42082
      vertex 6.02082 10 12.0103
      vertex 6.14431 10 12.1
    endloop
  endfacet
  facet normal 0 1 -2.22045e-16
    outer loop
      vertex 5.98972 10 9.42082
      vertex 6.14431 10 12.1
      vertex 6.65602 10 12.1
    endloop
  endfacet
  facet normal 0 1 -2.22045e-16
    outer loop
      vertex 5.98972 10 9.42082
      vertex 6.65602 10 12.1
      vertex 6.67508 10 12.091
    endloop
  endfacet
  facet normal 0 1 -2.22045e-16
    outer loop
      vertex 5.98972 10 9.42082
      vertex 6.67508 10 12.091
      vertex 6.81028 10 11.9792
    endloop
  endfacet
  facet normal 0 1 -2.22045e-16
    outer loop
      vertex 5.98972 10 9.42082
      vertex 6.81028 10 11.9792
      vertex 6.9 10 11.8557
    endloop
  endfacet
  facet normal 0 1 -2.22045e-16
    outer loop
      vertex 5.98972 10 9.42082
      vertex 6.9 10 11.8557
      vertex 6.9 10 9.54398
    endloop
  endfacet
  facet normal 0 1 -2.22045e-16
    outer loop
      vertex 5.98972 10 9.42082
      vertex 6.9 10 9.54398
      vertex 6.89103 10 9.52492
    endloop
  endfacet
  facet normal 0 1 -2.22045e-16
    outer loop
      vertex 5.98972 10 9.42082
      vertex 6.89103 10 9.52492
      vertex 6.77918 10 9.38972
    endloop
  endfacet
  facet normal 0 1 -2.22045e-16
    outer loop
      vertex 5.98972 10 9.42082
      vertex 6.77918 10 9.38972
      vertex 6.65569 10 9.3
    endloop
  endfacet
  facet normal 0 1 -2.22045e-16
    outer loop
      vertex 5.98972 10 9.42082
      vertex 6.65569 10 9.3
      vertex 6.14398 10 9.3
    endloop
  endfacet
  facet normal 0 1 -2.22045e-16
    outer loop
      vertex 5.98972 10 9.42082
      vertex 6.14398 10 9.3
      vertex 6.12492 10 9.30897
    endloop
  endfacet
  facet normal 0 1 -2.22045e-16
    outer loop
      vertex 7.9 10 9.54431
      vertex 7.9 10 11.856
      vertex 7.98972 10 9.42082
    endloop
  endfacet
  facet normal 0 1 -2.22045e-16
    outer loop
      vertex 7.98972 10 9.42082
      vertex 7.9 10 11.856
      vertex 7.90897 10 11.8751
    endloop
  endfacet
  facet normal 0 1 -2.22045e-16
    outer loop
      vertex 7.98972 10 9.42082
      vertex 7.90897 10 11.8751
      vertex 8.02082 10 12.0103
    endloop
  endfacet
  facet normal 0 1 -2.22045e-16
    outer loop
      vertex 7.98972 10 9.42082
      vertex 8.02082 10 12.0103
      vertex 8.14431 10 12.1
    endloop
  endfacet
  facet normal 0 1 -2.22045e-16
    outer loop
      vertex 7.98972 10 9.42082
      vertex 8.14431 10 12.1
      vertex 8.65602 10 12.1
    endloop
  endfacet
  facet normal 0 1 -2.22045e-16
    outer loop
      vertex 7.98972 10 9.42082
      vertex 8.65602 10 12.1
      vertex 8.67508 10 12.091
    endloop
  endfacet
  facet normal 0 1 -2.22045e-16
    outer loop
      vertex 7.98972 10 9.42082
      vertex 8.67508 10 12.091
      vertex 8.81028 10 11.9792
    endloop
  endfacet
  facet normal 0 1 -2.22045e-16
    outer loop
      vertex 7.98972 10 9.42082
      vertex 8.81028 10 11.9792
      vertex 8.9 10 11.8557
    endloop
  endfacet
  facet normal 0 1 -2.22045e-16
    outer loop
      vertex 7.98972 10 9.42082
      vertex 8.9 10 11.8557
      vertex 8.9 10 9.54398
    endloop
  endfacet
  facet normal 0 1 -2.22045e-16
    outer loop
      vertex 7.98972 10 9.42082
      vertex 8.9 10 9.54398
      vertex 8.89103 10 9.52492
    endloop
  endfacet
  facet normal 0 1 -2.22045e-16
    outer loop
      vertex 7.98972 10 9.42082
      vertex 8.89103 10 9.52492
      vertex 8.77918 10 9.38972
    endloop
  endfacet
  facet normal 0 1 -2.22045e-16
    outer loop
      vertex 7.98972 10 9.42082
      vertex 8.77918 10 9.38972
      vertex 8.65569 10 9.3
    endloop
  endfacet
  facet normal 0 1 -2.22045e-16
    outer loop
      vertex 7.98972 10 9.42082
      vertex 8.65569 10 9.3
      vertex 8.14398 10 9.3
    endloop
  endfacet
  facet normal 0 1 -2.22045e-16
    outer loop
      vertex 7.98972 10 9.42082
      vertex 8.14398 10 9.3
      vertex 8.12492 10 9.30897
    endloop
  endfacet
  facet normal 0 1 -2.22045e-16
    outer loop
      vertex 9.9 10 9.54431
      vertex 9.9 10 11.856
      vertex 9.98972 10 9.42082
    endloop
  endfacet
  facet normal 0 1 -2.22045e-16
    outer loop
      vertex 9.98972 10 9.42082
      vertex 9.9 10 11.856
      vertex 9.90897 10 11.8751
    endloop
  endfacet
  facet normal 0 1 -2.22045e-16
    outer loop
      vertex 9.98972 10 9.42082
      vertex 9.90897 10 11.8751
      vertex 10.0208 10 12.0103
    endloop
  endfacet
  facet normal 0 1 -2.22045e-16
    outer loop
      vertex 9.98972 10 9.42082
      vertex 10.0208 10 12.0103
      vertex 10.1443 10 12.1
    endloop
  endfacet
  facet normal 0 1 -2.22045e-16
    outer loop
      vertex 9.98972 10 9.42082
      vertex 10.1443 10 12.1
      vertex 10.656 10 12.1
    endloop
  endfacet
  facet normal 0 1 -2.22045e-16
    outer loop
      vertex 9.98972 10 9.42082
      vertex 10.656 10 12.1
      vertex 10.6751 10 12.091
    endloop
  endfacet
  facet normal 0 1 -2.22045e-16
    outer loop
      vertex 9.98972 10 9.42082
      vertex 10.6751 10 12.091
      vertex 10.8103 10 11.9792
    endloop
  endfacet
  facet normal 0 1 -2.22045e-16
    outer loop
      vertex 9.98972 10 9.42082
      vertex 10.8103 10 11.9792
      vertex 10.9 10 11.8557
    endloop
  endfacet
  facet normal 0 1 -2.22045e-16
    outer loop
      vertex 9.98972 10 9.42082
      vertex 10.9 10 11.8557
      vertex 10.9 10 9.54398
    endloop
  endfacet
  facet normal 0 1 -2.22045e-16
    outer loop
      vertex 9.98972 10 9.42082
      vertex 10.9 10 9.54398
      vertex 10.891 10 9.52492
    endloop
  endfacet
  facet normal 0 1 -2.22045e-16
    outer loop
      vertex 9.98972 10 9.42082
      vertex 10.891 10 9.52492
      vertex 10.7792 10 9.38972
    endloop
  endfacet
  facet normal 0 1 -2.22045e-16
    outer loop
      vertex 9.98972 10 9.42082
      vertex 10.7792 10 9.38972
      vertex 10.6557 10 9.3
    endloop
  endfacet
  facet normal 0 1 -2.22045e-16
    outer loop
      vertex 9.98972 10 9.42082
      vertex 10.6557 10 9.3
      vertex 10.144 10 9.3
    endloop
  endfacet
  facet normal 0 1 -2.22045e-16
    outer loop
      vertex 9.98972 10 9.42082
      vertex 10.144 10 9.3
      vertex 10.1249 10 9.30897
    endloop
  endfacet
  facet normal -1 0 0
    outer loop
      vertex 0.8 0 0.21
      vertex 0.8 0 9.21
      vertex 0.8 3 0.21
    endloop
  endfacet
  facet normal -1 0 0
    outer loop
      vertex 0.8 3 0.21
      vertex 0.8 0 9.21
      vertex 0.8 3 9.21
    endloop
  endfacet
  facet normal 0 -1 0
    outer loop
      vertex 0.8 0 9.21
      vertex 0.8 0 0.21
      vertex 2 0 0.21
    endloop
  endfacet
  facet normal 0 -1 0
    outer loop
      vertex 2 0 9.2
      vertex 0.8 0 9.21
      vertex 2 0 0.21
    endloop
  endfacet
  facet normal 0 -1 0
    outer loop
      vertex 2 0 9.2
      vertex 2 0 9.21
      vertex 0.8 0 9.21
    endloop
  endfacet
  facet normal 0 0 -1
    outer loop
      vertex 0.8 0 0.21
      vertex 0.8 3 0.21
      vertex 2 0 0.21
    endloop
  endfacet
  facet normal 0 0 -1
    outer loop
      vertex 2 0 0.21
      vertex 0.8 3 0.21
      vertex 2 3 0.21
    endloop
  endfacet
  facet normal 0 1 0
    outer loop
      vertex 2 3 9.2
      vertex 2 3 0.21
      vertex 0.8 3 9.2
    endloop
  endfacet
  facet normal 0 1 0
    outer loop
      vertex 0.8 3 0.21
      vertex 0.8 3 9.21
      vertex 0.8 3 9.2
    endloop
  endfacet
  facet normal 0 1 0
    outer loop
      vertex 0.8 3 0.21
      vertex 0.8 3 9.2
      vertex 2 3 0.21
    endloop
  endfacet
  facet normal 0 0 1
    outer loop
      vertex 0.8 0.0100005 9.21
      vertex 0.8 0 9.21
      vertex 2 0 9.21
    endloop
  endfacet
  facet normal 0 0 1
    outer loop
      vertex 0.8 3 9.21
      vertex 0.8 0 9.21
      vertex 0.8 0.0100005 9.21
    endloop
  endfacet
  facet normal 0 0 1
    outer loop
      vertex 2 0.0100005 9.21
      vertex 0.8 0.0100005 9.21
      vertex 2 0 9.21
    endloop
  endfacet
  facet normal 1 0 0
    outer loop
      vertex 2 0 9.21
      vertex 2 0 9.2
      vertex 2 4.85867e-07 9.2
    endloop
  endfacet
  facet normal 1 0 0
    outer loop
      vertex 2 0.0100005 9.21
      vertex 2 0 9.21
      vertex 2 4.85867e-07 9.2
    endloop
  endfacet
  facet normal 1 0 2.22045e-16
    outer loop
      vertex 2 4.85867e-07 9.2
      vertex 2 7 9.2
      vertex 2 7 12.2
    endloop
  endfacet
  facet normal 1 0 2.22045e-16
    outer loop
      vertex 2 4.85867e-07 9.2
      vertex 2 7 12.2
      vertex 2 3 12.2
    endloop
  endfacet
  facet normal 1 0 2.22045e-16
    outer loop
      vertex 2 0 9.2
      vertex 2 7 9.2
      vertex 2 4.85867e-07 9.2
    endloop
  endfacet
  facet normal 2.22045e-16 0 -1
    outer loop
      vertex 0.8 3 9.2
      vertex 0.8 7 9.2
      vertex 2 3 9.2
    endloop
  endfacet
  facet normal 2.22045e-16 0 -1
    outer loop
      vertex 2 3 9.2
      vertex 0.8 7 9.2
      vertex 2 7 9.2
    endloop
  endfacet
  facet normal 2.22045e-16 0 -1
    outer loop
      vertex 2 3 9.2
      vertex 2 7 9.2
      vertex 2 0 9.2
    endloop
  endfacet
  facet normal 1 0 0
    outer loop
      vertex 2 1 2.2
      vertex 2 0 0.21
      vertex 2 3 0.21
    endloop
  endfacet
  facet normal 1 0 0
    outer loop
      vertex 2 2 2.2
      vertex 2 1 2.2
      vertex 2 3 0.21
    endloop
  endfacet
  facet normal 1 0 0
    outer loop
      vertex 2 0 9.2
      vertex 2 0 0.21
      vertex 2 1 2.2
    endloop
  endfacet
  facet normal 1 0 0
    outer loop
      vertex 2 2 4.2
      vertex 2 2 2.2
      vertex 2 3 0.21
    endloop
  endfacet
  facet normal 1 0 0
    outer loop
      vertex 2 0 9.2
      vertex 2 1 2.2
      vertex 2 1 4.2
    endloop
  endfacet
  facet normal 1 0 0
    outer loop
      vertex 2 3 9.2
      vertex 2 2 4.2
      vertex 2 3 0.21
    endloop
  endfacet
  facet normal 1 0 0
    outer loop
      vertex 2 3 9.2
      vertex 2 0 9.2
      vertex 2 2 4.2
    endloop
  endfacet
  facet normal 1 0 0
    outer loop
      vertex 2 1 4.2
      vertex 2 2 4.2
      vertex 2 0 9.2
    endloop
  endfacet
  facet normal -1 0 -2.22045e-16
    outer loop
      vertex 0.8 3 12.2
      vertex 0.8 7 12.2
      vertex 0.8 7 9.2
    endloop
  endfacet
  facet normal -1 0 -2.22045e-16
    outer loop
      vertex 0.8 3 12.2
      vertex 0.8 7 9.2
      vertex 0.8 3 9.2
    endloop
  endfacet
  facet normal -1 0 -2.22045e-16
    outer loop
      vertex 0.8 3 12.2
      vertex 0.8 3 9.2
      vertex 0.8 3 9.21
    endloop
  endfacet
  facet normal -1 0 -2.22045e-16
    outer loop
      vertex 0.8 3 9.21
      vertex 0.8 0.0100005 9.21
      vertex 0.8 3 12.2
    endloop
  endfacet
  facet normal -1.57009e-16 -0.707107 0.707107
    outer loop
      vertex 2 3 12.2
      vertex 0.8 3 12.2
      vertex 0.8 0.0100005 9.21
    endloop
  endfacet
  facet normal -1.57009e-16 -0.707107 0.707107
    outer loop
      vertex 2 4.85867e-07 9.2
      vertex 2 3 12.2
      vertex 2 0.0100005 9.21
    endloop
  endfacet
  facet normal -1.57009e-16 -0.707107 0.707107
    outer loop
      vertex 2 0.0100005 9.21
      vertex 2 3 12.2
      vertex 0.8 0.0100005 9.21
    endloop
  endfacet
  facet normal -2.22045e-16 0 1
    outer loop
      vertex 0.8 7 12.2
      vertex 0.8 3 12.2
      vertex 2 3 12.2
    endloop
  endfacet
  facet normal -2.22045e-16 0 1
    outer loop
      vertex 2 7 12.2
      vertex 0.8 7 12.2
      vertex 2 3 12.2
    endloop
  endfacet
  facet normal 0 1 0
    outer loop
      vertex 0.8 7 12.2
      vertex 2 7 12.2
      vertex 0.8 7 9.2
    endloop
  endfacet
  facet normal 0 1 0
    outer loop
      vertex 0.8 7 9.2
      vertex 2 7 12.2
      vertex 2 7 9.2
    endloop
  endfacet
  facet normal 0 -1 0
    outer loop
      vertex 2 1 4.2
      vertex 2 1 2.2
      vertex 2.8 1 2.2
    endloop
  endfacet
  facet normal 0 -1 0
    outer loop
      vertex 2.8 1 4.2
      vertex 2 1 4.2
      vertex 2.8 1 2.2
    endloop
  endfacet
  facet normal 0 0 -1
    outer loop
      vertex 2 1 2.2
      vertex 2 2 2.2
      vertex 2.8 1 2.2
    endloop
  endfacet
  facet normal 0 0 -1
    outer loop
      vertex 2.8 1 2.2
      vertex 2 2 2.2
      vertex 2.8 2 2.2
    endloop
  endfacet
  facet normal 0 1 0
    outer loop
      vertex 2 2 2.2
      vertex 2 2 4.2
      vertex 2.8 2 2.2
    endloop
  endfacet
  facet normal 0 1 0
    outer loop
      vertex 2.8 2 2.2
      vertex 2 2 4.2
      vertex 2.8 2 4.2
    endloop
  endfacet
  facet normal 0 0 1
    outer loop
      vertex 2 2 4.2
      vertex 2 1 4.2
      vertex 2.8 1 4.2
    endloop
  endfacet
  facet normal 0 0 1
    outer loop
      vertex 2.8 2 4.2
      vertex 2 2 4.2
      vertex 2.8 1 4.2
    endloop
  endfacet
  facet normal -1 0 0
    outer loop
      vertex 2.8 2 4.2
      vertex 2.8 3 0.21
      vertex 2.8 2 2.2
    endloop
  endfacet
  facet normal -1 0 0
    outer loop
      vertex 2.8 2 4.2
      vertex 2.8 0 9.21
      vertex 2.8 3 9.21
    endloop
  endfacet
  facet normal -1 0 0
    outer loop
      vertex 2.8 0 0.21
      vertex 2.8 0 9.21
      vertex 2.8 1 4.2
    endloop
  endfacet
  facet normal -1 0 0
    outer loop
      vertex 2.8 0 0.21
      vertex 2.8 1 4.2
      vertex 2.8 1 2.2
    endloop
  endfacet
  facet normal -1 0 0
    outer loop
      vertex 2.8 0 0.21
      vertex 2.8 1 2.2
      vertex 2.8 3 0.21
    endloop
  endfacet
  facet normal -1 0 0
    outer loop
      vertex 2.8 1 2.2
      vertex 2.8 2 2.2
      vertex 2.8 3 0.21
    endloop
  endfacet
  facet normal -1 0 0
    outer loop
      vertex 2.8 3 0.21
      vertex 2.8 2 4.2
      vertex 2.8 3 9.21
    endloop
  endfacet
  facet normal -1 0 0
    outer loop
      vertex 2.8 1 4.2
      vertex 2.8 0 9.21
      vertex 2.8 2 4.2
    endloop
  endfacet
  facet normal 0 0 -1
    outer loop
      vertex 2.8 0 0.21
      vertex 2.8 3 0.21
      vertex 4 0 0.21
    endloop
  endfacet
  facet normal 0 0 -1
    outer loop
      vertex 4 0 0.21
      vertex 2.8 3 0.21
      vertex 4 3 0.21
    endloop
  endfacet
  facet normal 0 1 0
    outer loop
      vertex 4 3 9.2
      vertex 4 3 0.21
      vertex 2.8 3 9.2
    endloop
  endfacet
  facet normal 0 1 0
    outer loop
      vertex 2.8 3 0.21
      vertex 2.8 3 9.21
      vertex 2.8 3 9.2
    endloop
  endfacet
  facet normal 0 1 0
    outer loop
      vertex 2.8 3 0.21
      vertex 2.8 3 9.2
      vertex 4 3 0.21
    endloop
  endfacet
  facet normal 0 0 1
    outer loop
      vertex 2.8 0.0100005 9.21
      vertex 2.8 0 9.21
      vertex 4 0 9.21
    endloop
  endfacet
  facet normal 0 0 1
    outer loop
      vertex 2.8 3 9.21
      vertex 2.8 0 9.21
      vertex 2.8 0.0100005 9.21
    endloop
  endfacet
  facet normal 0 0 1
    outer loop
      vertex 4 0.0100005 9.21
      vertex 2.8 0.0100005 9.21
      vertex 4 0 9.21
    endloop
  endfacet
  facet normal 0 -1 0
    outer loop
      vertex 2.8 0 9.21
      vertex 2.8 0 0.21
      vertex 4 0 0.21
    endloop
  endfacet
  facet normal 0 -1 0
    outer loop
      vertex 4 0 9.2
      vertex 2.8 0 9.21
      vertex 4 0 0.21
    endloop
  endfacet
  facet normal 0 -1 0
    outer loop
      vertex 4 0 9.2
      vertex 4 0 9.21
      vertex 2.8 0 9.21
    endloop
  endfacet
  facet normal 1 0 0
    outer loop
      vertex 4 1 2.2
      vertex 4 0 0.21
      vertex 4 3 0.21
    endloop
  endfacet
  facet normal 1 0 0
    outer loop
      vertex 4 2 2.2
      vertex 4 1 2.2
      vertex 4 3 0.21
    endloop
  endfacet
  facet normal 1 0 0
    outer loop
      vertex 4 0 9.2
      vertex 4 0 0.21
      vertex 4 1 2.2
    endloop
  endfacet
  facet normal 1 0 0
    outer loop
      vertex 4 2 4.2
      vertex 4 2 2.2
      vertex 4 3 0.21
    endloop
  endfacet
  facet normal 1 0 0
    outer loop
      vertex 4 0 9.2
      vertex 4 1 2.2
      vertex 4 1 4.2
    endloop
  endfacet
  facet normal 1 0 0
    outer loop
      vertex 4 3 9.2
      vertex 4 2 4.2
      vertex 4 3 0.21
    endloop
  endfacet
  facet normal 1 0 0
    outer loop
      vertex 4 3 9.2
      vertex 4 0 9.2
      vertex 4 2 4.2
    endloop
  endfacet
  facet normal 1 0 0
    outer loop
      vertex 4 1 4.2
      vertex 4 2 4.2
      vertex 4 0 9.2
    endloop
  endfacet
  facet normal 2.22045e-16 0 -1
    outer loop
      vertex 2.8 3 9.2
      vertex 2.8 7 9.2
      vertex 4 3 9.2
    endloop
  endfacet
  facet normal 2.22045e-16 0 -1
    outer loop
      vertex 4 3 9.2
      vertex 2.8 7 9.2
      vertex 4 7 9.2
    endloop
  endfacet
  facet normal 2.22045e-16 0 -1
    outer loop
      vertex 4 3 9.2
      vertex 4 7 9.2
      vertex 4 0 9.2
    endloop
  endfacet
  facet normal -1 0 -2.22045e-16
    outer loop
      vertex 2.8 3 12.2
      vertex 2.8 7 12.2
      vertex 2.8 7 9.2
    endloop
  endfacet
  facet normal -1 0 -2.22045e-16
    outer loop
      vertex 2.8 3 12.2
      vertex 2.8 7 9.2
      vertex 2.8 3 9.2
    endloop
  endfacet
  facet normal -1 0 -2.22045e-16
    outer loop
      vertex 2.8 3 12.2
      vertex 2.8 3 9.2
      vertex 2.8 3 9.21
    endloop
  endfacet
  facet normal -1 0 -2.22045e-16
    outer loop
      vertex 2.8 3 9.21
      vertex 2.8 0.0100005 9.21
      vertex 2.8 3 12.2
    endloop
  endfacet
  facet normal -1.57009e-16 -0.707107 0.707107
    outer loop
      vertex 4 3 12.2
      vertex 2.8 3 12.2
      vertex 2.8 0.0100005 9.21
    endloop
  endfacet
  facet normal -1.57009e-16 -0.707107 0.707107
    outer loop
      vertex 4 4.85867e-07 9.2
      vertex 4 3 12.2
      vertex 4 0.0100005 9.21
    endloop
  endfacet
  facet normal -1.57009e-16 -0.707107 0.707107
    outer loop
      vertex 4 0.0100005 9.21
      vertex 4 3 12.2
      vertex 2.8 0.0100005 9.21
    endloop
  endfacet
  facet normal 1 0 0
    outer loop
      vertex 4 0 9.21
      vertex 4 0 9.2
      vertex 4 4.85867e-07 9.2
    endloop
  endfacet
  facet normal 1 0 0
    outer loop
      vertex 4 0.0100005 9.21
      vertex 4 0 9.21
      vertex 4 4.85867e-07 9.2
    endloop
  endfacet
  facet normal 1 0 2.22045e-16
    outer loop
      vertex 4 4.85867e-07 9.2
      vertex 4 7 9.2
      vertex 4 7 12.2
    endloop
  endfacet
  facet normal 1 0 2.22045e-16
    outer loop
      vertex 4 4.85867e-07 9.2
      vertex 4 7 12.2
      vertex 4 3 12.2
    endloop
  endfacet
  facet normal 1 0 2.22045e-16
    outer loop
      vertex 4 0 9.2
      vertex 4 7 9.2
      vertex 4 4.85867e-07 9.2
    endloop
  endfacet
  facet normal 0 -1 0
    outer loop
      vertex 4 1 4.2
      vertex 4 1 2.2
      vertex 5.8 1 2.2
    endloop
  endfacet
  facet normal 0 -1 0
    outer loop
      vertex 5.8 1 4.2
      vertex 4 1 4.2
      vertex 5.8 1 2.2
    endloop
  endfacet
  facet normal 0 0 -1
    outer loop
      vertex 4 1 2.2
      vertex 4 2 2.2
      vertex 5.8 1 2.2
    endloop
  endfacet
  facet normal 0 0 -1
    outer loop
      vertex 5.8 1 2.2
      vertex 4 2 2.2
      vertex 5.8 2 2.2
    endloop
  endfacet
  facet normal 0 1 0
    outer loop
      vertex 4 2 2.2
      vertex 4 2 4.2
      vertex 5.8 2 2.2
    endloop
  endfacet
  facet normal 0 1 0
    outer loop
      vertex 5.8 2 2.2
      vertex 4 2 4.2
      vertex 5.8 2 4.2
    endloop
  endfacet
  facet normal 0 0 1
    outer loop
      vertex 4 2 4.2
      vertex 4 1 4.2
      vertex 5.8 1 4.2
    endloop
  endfacet
  facet normal 0 0 1
    outer loop
      vertex 5.8 2 4.2
      vertex 4 2 4.2
      vertex 5.8 1 4.2
    endloop
  endfacet
  facet normal 0 1 0
    outer loop
      vertex 2.8 7 12.2
      vertex 4 7 12.2
      vertex 2.8 7 9.2
    endloop
  endfacet
  facet normal 0 1 0
    outer loop
      vertex 2.8 7 9.2
      vertex 4 7 12.2
      vertex 4 7 9.2
    endloop
  endfacet
  facet normal -2.22045e-16 0 1
    outer loop
      vertex 2.8 7 12.2
      vertex 2.8 3 12.2
      vertex 4 3 12.2
    endloop
  endfacet
  facet normal -2.22045e-16 0 1
    outer loop
      vertex 4 7 12.2
      vertex 2.8 7 12.2
      vertex 4 3 12.2
    endloop
  endfacet
  facet normal -1 0 0
    outer loop
      vertex 5.8 2 4.2
      vertex 5.8 3 0.21
      vertex 5.8 2 2.2
    endloop
  endfacet
  facet normal -1 0 0
    outer loop
      vertex 5.8 2 4.2
      vertex 5.8 0 9.21
      vertex 5.8 3 9.21
    endloop
  endfacet
  facet normal -1 0 0
    outer loop
      vertex 5.8 0 0.21
      vertex 5.8 0 9.21
      vertex 5.8 1 4.2
    endloop
  endfacet
  facet normal -1 0 0
    outer loop
      vertex 5.8 0 0.21
      vertex 5.8 1 4.2
      vertex 5.8 1 2.2
    endloop
  endfacet
  facet normal -1 0 0
    outer loop
      vertex 5.8 0 0.21
      vertex 5.8 1 2.2
      vertex 5.8 3 0.21
    endloop
  endfacet
  facet normal -1 0 0
    outer loop
      vertex 5.8 1 2.2
      vertex 5.8 2 2.2
      vertex 5.8 3 0.21
    endloop
  endfacet
  facet normal -1 0 0
    outer loop
      vertex 5.8 3 0.21
      vertex 5.8 2 4.2
      vertex 5.8 3 9.21
    endloop
  endfacet
  facet normal -1 0 0
    outer loop
      vertex 5.8 1 4.2
      vertex 5.8 0 9.21
      vertex 5.8 2 4.2
    endloop
  endfacet
  facet normal 0 0 -1
    outer loop
      vertex 5.8 0 0.21
      vertex 5.8 3 0.21
      vertex 7 0 0.21
    endloop
  endfacet
  facet normal 0 0 -1
    outer loop
      vertex 7 0 0.21
      vertex 5.8 3 0.21
      vertex 7 3 0.21
    endloop
  endfacet
  facet normal 0 1 0
    outer loop
      vertex 7 3 9.2
      vertex 7 3 0.21
      vertex 5.8 3 9.2
    endloop
  endfacet
  facet normal 0 1 0
    outer loop
      vertex 5.8 3 0.21
      vertex 5.8 3 9.21
      vertex 5.8 3 9.2
    endloop
  endfacet
  facet normal 0 1 0
    outer loop
      vertex 5.8 3 0.21
      vertex 5.8 3 9.2
      vertex 7 3 0.21
    endloop
  endfacet
  facet normal 0 0 1
    outer loop
      vertex 5.8 0.0100005 9.21
      vertex 5.8 0 9.21
      vertex 7 0 9.21
    endloop
  endfacet
  facet normal 0 0 1
    outer loop
      vertex 5.8 3 9.21
      vertex 5.8 0 9.21
      vertex 5.8 0.0100005 9.21
    endloop
  endfacet
  facet normal 0 0 1
    outer loop
      vertex 7 0.0100005 9.21
      vertex 5.8 0.0100005 9.21
      vertex 7 0 9.21
    endloop
  endfacet
  facet normal 0 -1 0
    outer loop
      vertex 5.8 0 9.21
      vertex 5.8 0 0.21
      vertex 7 0 0.21
    endloop
  endfacet
  facet normal 0 -1 0
    outer loop
      vertex 7 0 9.2
      vertex 5.8 0 9.21
      vertex 7 0 0.21
    endloop
  endfacet
  facet normal 0 -1 0
    outer loop
      vertex 7 0 9.2
      vertex 7 0 9.21
      vertex 5.8 0 9.21
    endloop
  endfacet
  facet normal 1 0 0
    outer loop
      vertex 7 1 2.2
      vertex 7 0 0.21
      vertex 7 3 0.21
    endloop
  endfacet
  facet normal 1 0 0
    outer loop
      vertex 7 2 2.2
      vertex 7 1 2.2
      vertex 7 3 0.21
    endloop
  endfacet
  facet normal 1 0 0
    outer loop
      vertex 7 0 9.2
      vertex 7 0 0.21
      vertex 7 1 2.2
    endloop
  endfacet
  facet normal 1 0 0
    outer loop
      vertex 7 2 4.2
      vertex 7 2 2.2
      vertex 7 3 0.21
    endloop
  endfacet
  facet normal 1 0 0
    outer loop
      vertex 7 0 9.2
      vertex 7 1 2.2
      vertex 7 1 4.2
    endloop
  endfacet
  facet normal 1 0 0
    outer loop
      vertex 7 3 9.2
      vertex 7 2 4.2
      vertex 7 3 0.21
    endloop
  endfacet
  facet normal 1 0 0
    outer loop
      vertex 7 3 9.2
      vertex 7 0 9.2
      vertex 7 2 4.2
    endloop
  endfacet
  facet normal 1 0 0
    outer loop
      vertex 7 1 4.2
      vertex 7 2 4.2
      vertex 7 0 9.2
    endloop
  endfacet
  facet normal 2.22045e-16 0 -1
    outer loop
      vertex 5.8 3 9.2
      vertex 5.8 7 9.2
      vertex 7 3 9.2
    endloop
  endfacet
  facet normal 2.22045e-16 0 -1
    outer loop
      vertex 7 3 9.2
      vertex 5.8 7 9.2
      vertex 7 7 9.2
    endloop
  endfacet
  facet normal 2.22045e-16 0 -1
    outer loop
      vertex 7 3 9.2
      vertex 7 7 9.2
      vertex 7 0 9.2
    endloop
  endfacet
  facet normal -1 0 -2.22045e-16
    outer loop
      vertex 5.8 3 12.2
      vertex 5.8 7 12.2
      vertex 5.8 7 9.2
    endloop
  endfacet
  facet normal -1 0 -2.22045e-16
    outer loop
      vertex 5.8 3 12.2
      vertex 5.8 7 9.2
      vertex 5.8 3 9.2
    endloop
  endfacet
  facet normal -1 0 -2.22045e-16
    outer loop
      vertex 5.8 3 12.2
      vertex 5.8 3 9.2
      vertex 5.8 3 9.21
    endloop
  endfacet
  facet normal -1 0 -2.22045e-16
    outer loop
      vertex 5.8 3 9.21
      vertex 5.8 0.0100005 9.21
      vertex 5.8 3 12.2
    endloop
  endfacet
  facet normal -1.57009e-16 -0.707107 0.707107
    outer loop
      vertex 7 3 12.2
      vertex 5.8 3 12.2
      vertex 5.8 0.0100005 9.21
    endloop
  endfacet
  facet normal -1.57009e-16 -0.707107 0.707107
    outer loop
      vertex 7 4.85867e-07 9.2
      vertex 7 3 12.2
      vertex 7 0.0100005 9.21
    endloop
  endfacet
  facet normal -1.57009e-16 -0.707107 0.707107
    outer loop
      vertex 7 0.0100005 9.21
      vertex 7 3 12.2
      vertex 5.8 0.0100005 9.21
    endloop
  endfacet
  facet normal 1 0 0
    outer loop
      vertex 7 0 9.21
      vertex 7 0 9.2
      vertex 7 4.85867e-07 9.2
    endloop
  endfacet
  facet normal 1 0 0
    outer loop
      vertex 7 0.0100005 9.21
      vertex 7 0 9.21
      vertex 7 4.85867e-07 9.2
    endloop
  endfacet
  facet normal 1 0 2.22045e-16
    outer loop
      vertex 7 4.85867e-07 9.2
      vertex 7 7 9.2
      vertex 7 7 12.2
    endloop
  endfacet
  facet normal 1 0 2.22045e-16
    outer loop
      vertex 7 4.85867e-07 9.2
      vertex 7 7 12.2
      vertex 7 3 12.2
    endloop
  endfacet
  facet normal 1 0 2.22045e-16
    outer loop
      vertex 7 0 9.2
      vertex 7 7 9.2
      vertex 7 4.85867e-07 9.2
    endloop
  endfacet
  facet normal 0 -1 0
    outer loop
      vertex 7 1 4.2
      vertex 7 1 2.2
      vertex 7.8 1 2.2
    endloop
  endfacet
  facet normal 0 -1 0
    outer loop
      vertex 7.8 1 4.2
      vertex 7 1 4.2
      vertex 7.8 1 2.2
    endloop
  endfacet
  facet normal 0 0 -1
    outer loop
      vertex 7 1 2.2
      vertex 7 2 2.2
      vertex 7.8 1 2.2
    endloop
  endfacet
  facet normal 0 0 -1
    outer loop
      vertex 7.8 1 2.2
      vertex 7 2 2.2
      vertex 7.8 2 2.2
    endloop
  endfacet
  facet normal 0 1 0
    outer loop
      vertex 7 2 2.2
      vertex 7 2 4.2
      vertex 7.8 2 2.2
    endloop
  endfacet
  facet normal 0 1 0
    outer loop
      vertex 7.8 2 2.2
      vertex 7 2 4.2
      vertex 7.8 2 4.2
    endloop
  endfacet
  facet normal 0 0 1
    outer loop
      vertex 7 2 4.2
      vertex 7 1 4.2
      vertex 7.8 1 4.2
    endloop
  endfacet
  facet normal 0 0 1
    outer loop
      vertex 7.8 2 4.2
      vertex 7 2 4.2
      vertex 7.8 1 4.2
    endloop
  endfacet
  facet normal 0 1 0
    outer loop
      vertex 5.8 7 12.2
      vertex 7 7 12.2
      vertex 5.8 7 9.2
    endloop
  endfacet
  facet normal 0 1 0
    outer loop
      vertex 5.8 7 9.2
      vertex 7 7 12.2
      vertex 7 7 9.2
    endloop
  endfacet
  facet normal -2.22045e-16 0 1
    outer loop
      vertex 5.8 7 12.2
      vertex 5.8 3 12.2
      vertex 7 3 12.2
    endloop
  endfacet
  facet normal -2.22045e-16 0 1
    outer loop
      vertex 7 7 12.2
      vertex 5.8 7 12.2
      vertex 7 3 12.2
    endloop
  endfacet
  facet normal -1 0 0
    outer loop
      vertex 7.8 2 4.2
      vertex 7.8 3 0.21
      vertex 7.8 2 2.2
    endloop
  endfacet
  facet normal -1 0 0
    outer loop
      vertex 7.8 2 4.2
      vertex 7.8 0 9.21
      vertex 7.8 3 9.21
    endloop
  endfacet
  facet normal -1 0 0
    outer loop
      vertex 7.8 0 0.21
      vertex 7.8 0 9.21
      vertex 7.8 1 4.2
    endloop
  endfacet
  facet normal -1 0 0
    outer loop
      vertex 7.8 0 0.21
      vertex 7.8 1 4.2
      vertex 7.8 1 2.2
    endloop
  endfacet
  facet normal -1 0 0
    outer loop
      vertex 7.8 0 0.21
      vertex 7.8 1 2.2
      vertex 7.8 3 0.21
    endloop
  endfacet
  facet normal -1 0 0
    outer loop
      vertex 7.8 1 2.2
      vertex 7.8 2 2.2
      vertex 7.8 3 0.21
    endloop
  endfacet
  facet normal -1 0 0
    outer loop
      vertex 7.8 3 0.21
      vertex 7.8 2 4.2
      vertex 7.8 3 9.21
    endloop
  endfacet
  facet normal -1 0 0
    outer loop
      vertex 7.8 1 4.2
      vertex 7.8 0 9.21
      vertex 7.8 2 4.2
    endloop
  endfacet
  facet normal 0 0 -1
    outer loop
      vertex 7.8 0 0.21
      vertex 7.8 3 0.21
      vertex 9 0 0.21
    endloop
  endfacet
  facet normal 0 0 -1
    outer loop
      vertex 9 0 0.21
      vertex 7.8 3 0.21
      vertex 9 3 0.21
    endloop
  endfacet
  facet normal 0 1 0
    outer loop
      vertex 9 3 9.2
      vertex 9 3 0.21
      vertex 7.8 3 9.2
    endloop
  endfacet
  facet normal 0 1 0
    outer loop
      vertex 7.8 3 0.21
      vertex 7.8 3 9.21
      vertex 7.8 3 9.2
    endloop
  endfacet
  facet normal 0 1 0
    outer loop
      vertex 7.8 3 0.21
      vertex 7.8 3 9.2
      vertex 9 3 0.21
    endloop
  endfacet
  facet normal 0 0 1
    outer loop
      vertex 7.8 0.0100005 9.21
      vertex 7.8 0 9.21
      vertex 9 0 9.21
    endloop
  endfacet
  facet normal 0 0 1
    outer loop
      vertex 7.8 3 9.21
      vertex 7.8 0 9.21
      vertex 7.8 0.0100005 9.21
    endloop
  endfacet
  facet normal 0 0 1
    outer loop
      vertex 9 0.0100005 9.21
      vertex 7.8 0.0100005 9.21
      vertex 9 0 9.21
    endloop
  endfacet
  facet normal 0 -1 0
    outer loop
      vertex 7.8 0 9.21
      vertex 7.8 0 0.21
      vertex 9 0 0.21
    endloop
  endfacet
  facet normal 0 -1 0
    outer loop
      vertex 9 0 9.2
      vertex 7.8 0 9.21
      vertex 9 0 0.21
    endloop
  endfacet
  facet normal 0 -1 0
    outer loop
      vertex 9 0 9.2
      vertex 9 0 9.21
      vertex 7.8 0 9.21
    endloop
  endfacet
  facet normal 1 0 0
    outer loop
      vertex 9 1 2.2
      vertex 9 0 0.21
      vertex 9 3 0.21
    endloop
  endfacet
  facet normal 1 0 0
    outer loop
      vertex 9 2 2.2
      vertex 9 1 2.2
      vertex 9 3 0.21
    endloop
  endfacet
  facet normal 1 0 0
    outer loop
      vertex 9 0 9.2
      vertex 9 0 0.21
      vertex 9 1 2.2
    endloop
  endfacet
  facet normal 1 0 0
    outer loop
      vertex 9 2 4.2
      vertex 9 2 2.2
      vertex 9 3 0.21
    endloop
  endfacet
  facet normal 1 0 0
    outer loop
      vertex 9 0 9.2
      vertex 9 1 2.2
      vertex 9 1 4.2
    endloop
  endfacet
  facet normal 1 0 0
    outer loop
      vertex 9 3 9.2
      vertex 9 2 4.2
      vertex 9 3 0.21
    endloop
  endfacet
  facet normal 1 0 0
    outer loop
      vertex 9 3 9.2
      vertex 9 0 9.2
      vertex 9 2 4.2
    endloop
  endfacet
  facet normal 1 0 0
    outer loop
      vertex 9 1 4.2
      vertex 9 2 4.2
      vertex 9 0 9.2
    endloop
  endfacet
  facet normal 2.22045e-16 0 -1
    outer loop
      vertex 7.8 3 9.2
      vertex 7.8 7 9.2
      vertex 9 3 9.2
    endloop
  endfacet
  facet normal 2.22045e-16 0 -1
    outer loop
      vertex 9 3 9.2
      vertex 7.8 7 9.2
      vertex 9 7 9.2
    endloop
  endfacet
  facet normal 2.22045e-16 0 -1
    outer loop
      vertex 9 3 9.2
      vertex 9 7 9.2
      vertex 9 0 9.2
    endloop
  endfacet
  facet normal -1 0 -2.22045e-16
    outer loop
      vertex 7.8 3 12.2
      vertex 7.8 7 12.2
      vertex 7.8 7 9.2
    endloop
  endfacet
  facet normal -1 0 -2.22045e-16
    outer loop
      vertex 7.8 3 12.2
      vertex 7.8 7 9.2
      vertex 7.8 3 9.2
    endloop
  endfacet
  facet normal -1 0 -2.22045e-16
    outer loop
      vertex 7.8 3 12.2
      vertex 7.8 3 9.2
      vertex 7.8 3 9.21
    endloop
  endfacet
  facet normal -1 0 -2.22045e-16
    outer loop
      vertex 7.8 3 9.21
      vertex 7.8 0.0100005 9.21
      vertex 7.8 3 12.2
    endloop
  endfacet
  facet normal -1.57009e-16 -0.707107 0.707107
    outer loop
      vertex 9 3 12.2
      vertex 7.8 3 12.2
      vertex 7.8 0.0100005 9.21
    endloop
  endfacet
  facet normal -1.57009e-16 -0.707107 0.707107
    outer loop
      vertex 9 4.85867e-07 9.2
      vertex 9 3 12.2
      vertex 9 0.0100005 9.21
    endloop
  endfacet
  facet normal -1.57009e-16 -0.707107 0.707107
    outer loop
      vertex 9 0.0100005 9.21
      vertex 9 3 12.2
      vertex 7.8 0.0100005 9.21
    endloop
  endfacet
  facet normal 1 0 0
    outer loop
      vertex 9 0 9.21
      vertex 9 0 9.2
      vertex 9 4.85867e-07 9.2
    endloop
  endfacet
  facet normal 1 0 0
    outer loop
      vertex 9 0.0100005 9.21
      vertex 9 0 9.21
      vertex 9 4.85867e-07 9.2
    endloop
  endfacet
  facet normal 1 0 2.22045e-16
    outer loop
      vertex 9 4.85867e-07 9.2
      vertex 9 7 9.2
      vertex 9 7 12.2
    endloop
  endfacet
  facet normal 1 0 2.22045e-16
    outer loop
      vertex 9 4.85867e-07 9.2
      vertex 9 7 12.2
      vertex 9 3 12.2
    endloop
  endfacet
  facet normal 1 0 2.22045e-16
    outer loop
      vertex 9 0 9.2
      vertex 9 7 9.2
      vertex 9 4.85867e-07 9.2
    endloop
  endfacet
  facet normal 0 -1 0
    outer loop
      vertex 9 1 4.2
      vertex 9 1 2.2
      vertex 9.8 1 2.2
    endloop
  endfacet
  facet normal 0 -1 0
    outer loop
      vertex 9.8 1 4.2
      vertex 9 1 4.2
      vertex 9.8 1 2.2
    endloop
  endfacet
  facet normal 0 0 -1
    outer loop
      vertex 9 1 2.2
      vertex 9 2 2.2
      vertex 9.8 1 2.2
    endloop
  endfacet
  facet normal 0 0 -1
    outer loop
      vertex 9.8 1 2.2
      vertex 9 2 2.2
      vertex 9.8 2 2.2
    endloop
  endfacet
  facet normal 0 1 0
    outer loop
      vertex 9 2 2.2
      vertex 9 2 4.2
      vertex 9.8 2 2.2
    endloop
  endfacet
  facet normal 0 1 0
    outer loop
      vertex 9.8 2 2.2
      vertex 9 2 4.2
      vertex 9.8 2 4.2
    endloop
  endfacet
  facet normal 0 0 1
    outer loop
      vertex 9 2 4.2
      vertex 9 1 4.2
      vertex 9.8 1 4.2
    endloop
  endfacet
  facet normal 0 0 1
    outer loop
      vertex 9.8 2 4.2
      vertex 9 2 4.2
      vertex 9.8 1 4.2
    endloop
  endfacet
  facet normal 0 1 0
    outer loop
      vertex 7.8 7 12.2
      vertex 9 7 12.2
      vertex 7.8 7 9.2
    endloop
  endfacet
  facet normal 0 1 0
    outer loop
      vertex 7.8 7 9.2
      vertex 9 7 12.2
      vertex 9 7 9.2
    endloop
  endfacet
  facet normal -2.22045e-16 0 1
    outer loop
      vertex 7.8 7 12.2
      vertex 7.8 3 12.2
      vertex 9 3 12.2
    endloop
  endfacet
  facet normal -2.22045e-16 0 1
    outer loop
      vertex 9 7 12.2
      vertex 7.8 7 12.2
      vertex 9 3 12.2
    endloop
  endfacet
  facet normal -1 0 0
    outer loop
      vertex 9.8 2 4.2
      vertex 9.8 3 0.21
      vertex 9.8 2 2.2
    endloop
  endfacet
  facet normal -1 0 0
    outer loop
      vertex 9.8 2 4.2
      vertex 9.8 0 9.21
      vertex 9.8 3 9.21
    endloop
  endfacet
  facet normal -1 0 0
    outer loop
      vertex 9.8 0 0.21
      vertex 9.8 0 9.21
      vertex 9.8 1 4.2
    endloop
  endfacet
  facet normal -1 0 0
    outer loop
      vertex 9.8 0 0.21
      vertex 9.8 1 4.2
      vertex 9.8 1 2.2
    endloop
  endfacet
  facet normal -1 0 0
    outer loop
      vertex 9.8 0 0.21
      vertex 9.8 1 2.2
      vertex 9.8 3 0.21
    endloop
  endfacet
  facet normal -1 0 0
    outer loop
      vertex 9.8 1 2.2
      vertex 9.8 2 2.2
      vertex 9.8 3 0.21
    endloop
  endfacet
  facet normal -1 0 0
    outer loop
      vertex 9.8 3 0.21
      vertex 9.8 2 4.2
      vertex 9.8 3 9.21
    endloop
  endfacet
  facet normal -1 0 0
    outer loop
      vertex 9.8 1 4.2
      vertex 9.8 0 9.21
      vertex 9.8 2 4.2
    endloop
  endfacet
  facet normal 0 0 -1
    outer loop
      vertex 9.8 0 0.21
      vertex 9.8 3 0.21
      vertex 11 0 0.21
    endloop
  endfacet
  facet normal 0 0 -1
    outer loop
      vertex 11 0 0.21
      vertex 9.8 3 0.21
      vertex 11 3 0.21
    endloop
  endfacet
  facet normal 0 1 0
    outer loop
      vertex 11 3 9.2
      vertex 11 3 0.21
      vertex 9.8 3 9.2
    endloop
  endfacet
  facet normal 0 1 0
    outer loop
      vertex 9.8 3 0.21
      vertex 9.8 3 9.21
      vertex 9.8 3 9.2
    endloop
  endfacet
  facet normal 0 1 0
    outer loop
      vertex 9.8 3 0.21
      vertex 9.8 3 9.2
      vertex 11 3 0.21
    endloop
  endfacet
  facet normal 0 0 1
    outer loop
      vertex 9.8 0.0100005 9.21
      vertex 9.8 0 9.21
      vertex 11 0 9.21
    endloop
  endfacet
  facet normal 0 0 1
    outer loop
      vertex 9.8 3 9.21
      vertex 9.8 0 9.21
      vertex 9.8 0.0100005 9.21
    endloop
  endfacet
  facet normal 0 0 1
    outer loop
      vertex 11 0.0100005 9.21
      vertex 9.8 0.0100005 9.21
      vertex 11 0 9.21
    endloop
  endfacet
  facet normal 0 -1 0
    outer loop
      vertex 9.8 0 9.21
      vertex 9.8 0 0.21
      vertex 11 0 0.21
    endloop
  endfacet
  facet normal 0 -1 0
    outer loop
      vertex 11 0 9.2
      vertex 9.8 0 9.21
      vertex 11 0 0.21
    endloop
  endfacet
  facet normal 0 -1 0
    outer loop
      vertex 11 0 9.2
      vertex 11 0 9.21
      vertex 9.8 0 9.21
    endloop
  endfacet
  facet normal 1 0 0
    outer loop
      vertex 11 0 9.2
      vertex 11 0 0.21
      vertex 11 3 0.21
    endloop
  endfacet
  facet normal 1 0 0
    outer loop
      vertex 11 3 9.2
      vertex 11 0 9.2
      vertex 11 3 0.21
    endloop
  endfacet
  facet normal 2.22045e-16 0 -1
    outer loop
      vertex 9.8 3 9.2
      vertex 9.8 7 9.2
      vertex 11 3 9.2
    endloop
  endfacet
  facet normal 2.22045e-16 0 -1
    outer loop
      vertex 11 3 9.2
      vertex 9.8 7 9.2
      vertex 11 7 9.2
    endloop
  endfacet
  facet normal 2.22045e-16 0 -1
    outer loop
      vertex 11 3 9.2
      vertex 11 7 9.2
      vertex 11 0 9.2
    endloop
  endfacet
  facet normal -1 0 -2.22045e-16
    outer loop
      vertex 9.8 3 12.2
      vertex 9.8 7 12.2
      vertex 9.8 7 9.2
    endloop
  endfacet
  facet normal -1 0 -2.22045e-16
    outer loop
      vertex 9.8 3 12.2
      vertex 9.8 7 9.2
      vertex 9.8 3 9.2
    endloop
  endfacet
  facet normal -1 0 -2.22045e-16
    outer loop
      vertex 9.8 3 12.2
      vertex 9.8 3 9.2
      vertex 9.8 3 9.21
    endloop
  endfacet
  facet normal -1 0 -2.22045e-16
    outer loop
      vertex 9.8 3 9.21
      vertex 9.8 0.0100005 9.21
      vertex 9.8 3 12.2
    endloop
  endfacet
  facet normal -1.57009e-16 -0.707107 0.707107
    outer loop
      vertex 11 3 12.2
      vertex 9.8 3 12.2
      vertex 9.8 0.0100005 9.21
    endloop
  endfacet
  facet normal -1.57009e-16 -0.707107 0.707107
    outer loop
      vertex 11 4.85867e-07 9.2
      vertex 11 3 12.2
      vertex 11 0.0100005 9.21
    endloop
  endfacet
  facet normal -1.57009e-16 -0.707107 0.707107
    outer loop
      vertex 11 0.0100005 9.21
      vertex 11 3 12.2
      vertex 9.8 0.0100005 9.21
    endloop
  endfacet
  facet normal 1 0 0
    outer loop
      vertex 11 0 9.21
      vertex 11 0 9.2
      vertex 11 4.85867e-07 9.2
    endloop
  endfacet
  facet normal 1 0 0
    outer loop
      vertex 11 0.0100005 9.21
      vertex 11 0 9.21
      vertex 11 4.85867e-07 9.2
    endloop
  endfacet
  facet normal 1 0 2.22045e-16
    outer loop
      vertex 11 4.85867e-07 9.2
      vertex 11 7 9.2
      vertex 11 7 12.2
    endloop
  endfacet
  facet normal 1 0 2.22045e-16
    outer loop
      vertex 11 4.85867e-07 9.2
      vertex 11 7 12.2
      vertex 11 3 12.2
    endloop
  endfacet
  facet normal 1 0 2.22045e-16
    outer loop
      vertex 11 0 9.2
      vertex 11 7 9.2
      vertex 11 4.85867e-07 9.2
    endloop
  endfacet
  facet normal 0 1 0
    outer loop
      vertex 9.8 7 12.2
      vertex 11 7 12.2
      vertex 9.8 7 9.2
    endloop
  endfacet
  facet normal 0 1 0
    outer loop
      vertex 9.8 7 9.2
      vertex 11 7 12.2
      vertex 11 7 9.2
    endloop
  endfacet
  facet normal -2.22045e-16 0 1
    outer loop
      vertex 9.8 7 12.2
      vertex 9.8 3 12.2
      vertex 11 3 12.2
    endloop
  endfacet
  facet normal -2.22045e-16 0 1
    outer loop
      vertex 11 7 12.2
      vertex 9.8 7 12.2
      vertex 11 3 12.2
    endloop
  endfacet
endsolid OpenSCAD_Model
